<svg width="40" height="40" viewBox="0 0 40 40" fill="none" xmlns="http://www.w3.org/2000/svg">
<g clip-path="url(#clip0_749_1587)">
<mask id="mask0_749_1587" style="mask-type:luminance" maskUnits="userSpaceOnUse" x="0" y="0" width="40" height="40">
<path d="M20 40C31.0457 40 40 31.0457 40 20C40 8.9543 31.0457 0 20 0C8.9543 0 0 8.9543 0 20C0 31.0457 8.9543 40 20 40Z" fill="white"/>
</mask>
<g mask="url(#mask0_749_1587)">
<path d="M0 0L0.625 1.71875L0 3.51562V5.3125L2.5 9.53125L0 13.75V16.25L2.5 20L0 23.75V26.25L2.5 30.4688L0 34.6875V40L1.71875 39.375L3.51562 40H5.3125L9.53125 37.5L13.75 40H16.25L20 37.5L23.75 40H26.25L30.4688 37.5L34.6875 40H40L39.375 38.2812L40 36.4844V34.6875L37.5 30.4688L40 26.25V23.75L37.5 20L40 16.25V13.75L37.5 9.53125L40 5.3125V0L38.2812 0.625L36.4844 0H34.6875L30.4688 2.5L26.25 0H23.75L20 2.5L16.25 0H13.75L9.53125 2.5L5.3125 0H0Z" fill="#EEEEEE"/>
<path d="M26.25 0V8.4375L34.6875 0H26.25ZM40 5.3125L31.5625 13.75H40V5.3125ZM0 13.75H8.4375L0 5.3125V13.75ZM5.3125 0L13.75 8.4375V0H5.3125ZM13.75 40V31.5625L5.3125 40H13.75ZM0 34.6875L8.4375 26.25H0V34.6875ZM40 26.25H31.5625L40 34.6875V26.25ZM34.6875 40L26.25 31.5625V40H34.6875Z" fill="#0052B4"/>
<path d="M0 0V3.51562L10.2344 13.75H13.75L0 0ZM16.25 0V16.25H0V23.75H16.25V40H23.75V23.75H40V16.25H23.75V0H16.25ZM36.4844 0L26.25 10.2344V13.75L40 0H36.4844ZM13.75 26.25L0 40H3.51562L13.75 29.7656V26.25ZM26.25 26.25L40 40V36.4844L29.7656 26.25H26.25Z" fill="#D80027"/>
</g>
</g>
<defs>
<clipPath id="clip0_749_1587">
<rect width="40" height="40" fill="white"/>
</clipPath>
</defs>
</svg>
