<svg width="40" height="40" viewBox="0 0 40 40" fill="none" xmlns="http://www.w3.org/2000/svg">
<path d="M1.1875 20C1.1875 28.1875 6.4375 35.125 13.6875 37.6875V2.3125C6.4375 4.875 1.1875 11.8125 1.1875 20Z" fill="#428BC1"/>
<path d="M38.6875 20C38.6875 11.8125 33.5 4.875 26.1875 2.3125V37.6875C33.5 35.125 38.6875 28.1875 38.6875 20Z" fill="#ED4C5C"/>
<path d="M13.6875 37.6875C15.625 38.375 17.75 38.75 19.9375 38.75C22.125 38.75 24.25 38.375 26.1875 37.6875V2.3125C24.25 1.625 22.1875 1.25 19.9375 1.25C17.6875 1.25 15.625 1.625 13.6875 2.3125V37.6875Z" fill="white"/>
</svg>
