<svg width="40" height="40" viewBox="0 0 40 40" fill="none" xmlns="http://www.w3.org/2000/svg">
<path d="M19.9375 1.25C11.75 1.25 4.8125 6.5 2.25 13.75H37.625C35.0625 6.5 28.125 1.25 19.9375 1.25Z" fill="#3E4347"/>
<path d="M19.9375 38.75C28.125 38.75 35.0625 33.5625 37.625 26.25H2.25C4.8125 33.5625 11.75 38.75 19.9375 38.75Z" fill="#FFE62E"/>
<path d="M2.25 13.75C1.5625 15.6875 1.1875 17.8125 1.1875 20C1.1875 22.1875 1.5625 24.3125 2.25 26.25H37.625C38.3125 24.3125 38.6875 22.1875 38.6875 20C38.6875 17.8125 38.3125 15.6875 37.625 13.75H2.25Z" fill="#ED4C5C"/>
</svg>
