<svg width="214" height="53" viewBox="0 0 214 53" fill="none" xmlns="http://www.w3.org/2000/svg">
<mask id="path-1-outside-1_22_1153" maskUnits="userSpaceOnUse" x="-0.000793457" y="1.47754" width="132" height="51" fill="black">
<rect fill="white" x="-0.000793457" y="1.47754" width="132" height="51"/>
<path d="M23.6557 34.9281C21.9711 34.9629 20.5513 34.4714 19.3964 33.4534C18.2722 32.4348 17.5398 31.1016 17.1992 29.4539L16.3722 29.471L16.5909 40.0385C16.6169 41.2944 16.2865 42.3584 15.5998 43.2307C14.9136 44.1335 13.8508 44.5999 12.4111 44.6297C11.0328 44.6582 9.95149 44.2362 9.16735 43.3638C8.41447 42.5213 8.0244 41.4416 7.99714 40.1245L7.64154 22.9407C7.60985 21.4092 7.52196 20.124 7.37789 19.0851C7.26381 18.0149 7.15195 17.052 7.04232 16.1962C6.89317 14.9123 7.13103 13.8195 7.75589 12.9179C8.38011 11.9857 9.41014 11.4128 10.846 11.1992C12.7094 10.9155 14.0334 11.2252 14.8182 12.1283C15.633 13.0001 16.06 14.3855 16.0993 16.2846L16.145 18.49L16.3297 18.5321C16.4581 17.3344 16.7863 16.1631 17.3142 15.0184C17.8721 13.8424 18.6641 12.876 19.6904 12.1194C20.716 11.332 22.0251 10.9219 23.6179 10.8889C26.2828 10.8338 28.2806 11.865 29.6115 13.9825C30.9723 16.0687 31.6895 18.8884 31.7631 22.4416C31.9329 30.6505 29.2305 34.8127 23.6557 34.9281ZM16.0477 22.6749C16.0579 23.1649 16.127 23.5466 16.2553 23.8197C16.4511 24.3979 16.8428 24.8188 17.4305 25.0824C18.0482 25.3148 18.9543 25.4186 20.1489 25.3939C21.6805 25.3622 22.7171 25.1109 23.259 24.64C23.8315 24.1685 24.1079 23.458 24.0882 22.5085C24.0679 21.5283 23.7777 20.8295 23.2175 20.4121C22.6566 19.964 21.6104 19.7559 20.0789 19.7875C18.8537 19.8129 17.9376 19.9698 17.3307 20.2581C16.7538 20.5152 16.3795 20.9366 16.2077 21.5224C16.0909 21.8006 16.0376 22.1848 16.0477 22.6749Z"/>
<path d="M38.4668 34.6216C36.2001 34.6685 34.4109 34.0926 33.099 32.894C31.8178 31.6948 31.1544 29.9925 31.1088 27.7871C31.0631 25.5817 31.7653 23.9737 33.2153 22.9631C34.6646 21.9219 36.538 21.3775 38.8352 21.3299C40.183 21.3021 41.4101 21.3686 42.5166 21.5296C43.6231 21.6905 44.624 21.9303 45.5192 22.2488L45.6571 22.246L45.6428 21.5568C45.6282 20.8523 45.3565 20.3063 44.8275 19.9189C44.2979 19.5009 43.6352 19.3154 42.8395 19.3625C42.0737 19.3783 41.4161 19.4379 40.8667 19.5412C40.3479 19.6439 39.6925 19.8107 38.9005 20.0416C37.4379 20.4396 36.1661 20.4352 35.0851 20.0286C34.0042 19.622 33.2516 18.7948 32.8274 17.5472C32.4326 16.2377 32.4864 15.1334 32.9887 14.2344C33.5217 13.3347 34.3344 12.6284 35.427 12.1155C36.367 11.6364 37.4158 11.2316 38.5735 10.9012C39.7617 10.5702 41.045 10.3904 42.4234 10.3619C46.436 10.2789 49.3968 11.1982 51.3058 13.1199C53.2449 15.0103 54.2616 18.2375 54.356 22.8014L54.5034 29.923C54.5294 31.1789 54.1681 32.2282 53.4194 33.0711C52.6708 33.9139 51.6226 34.3493 50.2748 34.3772C48.8046 34.4076 47.6933 34.017 46.9411 33.2051C46.2195 32.3927 45.8463 31.3892 45.8216 30.1946L45.7997 29.1378L44.8808 29.1569C44.8973 29.9533 44.7609 30.7681 44.4717 31.6015C44.2132 32.4342 43.6301 33.1358 42.7226 33.7061C41.8457 34.2759 40.4271 34.581 38.4668 34.6216ZM38.718 24.55C38.7288 25.0707 38.9202 25.4344 39.2922 25.6412C39.6948 25.8474 40.5394 25.9372 41.8259 25.9106C42.9898 25.8865 43.7993 25.7625 44.2543 25.5386C44.7093 25.3146 44.9315 24.9423 44.9207 24.4216C44.9105 23.9315 44.6738 23.5993 44.2106 23.425C43.7467 23.2201 42.9328 23.1297 41.7688 23.1538C40.4823 23.1804 39.6422 23.3051 39.2484 23.5277C38.8847 23.7191 38.7079 24.0599 38.718 24.55Z"/>
<path d="M71.3998 33.9401C69.7152 33.9749 68.2954 33.4834 67.1405 32.4654C66.0162 31.4468 65.2839 30.1136 64.9433 28.4659L64.1163 28.483L64.335 39.0505C64.361 40.3064 64.0306 41.3704 63.3438 42.2426C62.6577 43.1455 61.5948 43.6118 60.1552 43.6416C58.7768 43.6702 57.6956 43.2482 56.9114 42.3758C56.1586 41.5333 55.7685 40.4535 55.7412 39.1364L55.3856 21.9527C55.3539 20.4212 55.266 19.136 55.122 18.0971C55.0079 17.0269 54.896 16.064 54.7864 15.2082C54.6373 13.9243 54.8751 12.8315 55.5 11.9299C56.1242 10.9977 57.1542 10.4248 58.59 10.2112C60.4534 9.92749 61.7775 10.2372 62.5623 11.1402C63.3771 12.012 63.8041 13.3975 63.8434 15.2966L63.8891 17.502L64.0738 17.5441C64.2022 16.3464 64.5304 15.1751 65.0583 14.0304C65.6162 12.8544 66.4082 11.888 67.4345 11.1313C68.46 10.344 69.7692 9.93389 71.362 9.90093C74.0269 9.84578 76.0247 10.877 77.3556 12.9945C78.7164 15.0807 79.4336 17.9004 79.5071 21.4536C79.677 29.6625 76.9746 33.8247 71.3998 33.9401ZM63.7918 21.6868C63.8019 22.1769 63.8711 22.5585 63.9994 22.8317C64.1952 23.4099 64.5869 23.8308 65.1746 24.0944C65.7923 24.3268 66.6984 24.4306 67.893 24.4059C69.4245 24.3742 70.4612 24.1229 71.0031 23.652C71.5755 23.1805 71.852 22.47 71.8323 21.5204C71.812 20.5403 71.5218 19.8415 70.9615 19.4241C70.4007 18.976 69.3545 18.7678 67.823 18.7995C66.5977 18.8249 65.6817 18.9817 65.0748 19.2701C64.4979 19.5272 64.1235 19.9486 63.9518 20.5344C63.835 20.8126 63.7817 21.1967 63.7918 21.6868Z"/>
<path d="M86.2109 33.6336C83.9442 33.6805 82.155 33.1046 80.8431 31.906C79.5619 30.7068 78.8985 29.0045 78.8529 26.7991C78.8072 24.5937 79.5094 22.9857 80.9594 21.9751C82.4087 20.9339 84.282 20.3895 86.5793 20.3419C87.9271 20.314 89.1542 20.3806 90.2607 20.5415C91.3672 20.7025 92.3681 20.9423 93.2633 21.2608L93.4012 21.258L93.3869 20.5688C93.3723 19.8643 93.1006 19.3183 92.5716 18.9309C92.042 18.5128 91.3793 18.3274 90.5836 18.3745C89.8178 18.3903 89.1602 18.4499 88.6108 18.5532C88.0919 18.6559 87.4366 18.8227 86.6446 19.0535C85.1819 19.4515 83.9101 19.4472 82.8292 19.0406C81.7483 18.6339 80.9957 17.8068 80.5715 16.5592C80.1767 15.2497 80.2304 14.1454 80.7328 13.2463C81.2657 12.3467 82.0785 11.6404 83.1711 11.1274C84.1111 10.6483 85.1599 10.2436 86.3176 9.91319C87.5058 9.58217 88.7891 9.40239 90.1675 9.37387C94.1801 9.29083 97.1409 10.2102 99.0499 12.1318C100.989 14.0223 102.006 17.2494 102.1 21.8134L102.247 28.935C102.273 30.1908 101.912 31.2402 101.164 32.0831C100.415 32.9259 99.3667 33.3613 98.0189 33.3892C96.5487 33.4196 95.4374 33.0289 94.6852 32.2171C93.9635 31.4047 93.5904 30.4012 93.5657 29.2066L93.5438 28.1498L92.6249 28.1688C92.6414 28.9652 92.505 29.7801 92.2158 30.6135C91.9572 31.4462 91.3742 32.1477 90.4667 32.7181C89.5898 33.2878 88.1712 33.593 86.2109 33.6336ZM86.4621 23.5619C86.4729 24.0827 86.6643 24.4464 87.0363 24.6532C87.4389 24.8594 88.2835 24.9492 89.5699 24.9225C90.7339 24.8985 91.5434 24.7745 91.9984 24.5505C92.4534 24.3266 92.6756 23.9543 92.6648 23.4336C92.6546 22.9435 92.4179 22.6113 91.9547 22.437C91.4908 22.2321 90.6768 22.1417 89.5129 22.1658C88.2264 22.1924 87.3863 22.3171 86.9925 22.5397C86.6288 22.7311 86.452 23.0718 86.4621 23.5619Z"/>
<path d="M114.021 33.6556C111.908 33.6993 109.943 33.5408 108.128 33.18C106.342 32.7879 104.904 32.1589 103.814 31.2928C102.723 30.396 102.162 29.1972 102.131 27.6963C102.103 26.3792 102.479 25.2836 103.258 24.4095C104.036 23.5353 105.084 23.0846 106.401 23.0574C107.228 23.0403 108.058 23.161 108.891 23.4195C109.754 23.6468 110.662 23.8732 111.617 24.0986C112.572 24.324 113.6 24.4253 114.703 24.4024C115.683 24.3822 116.341 24.3226 116.676 24.2237C117.01 24.0942 117.174 23.8763 117.168 23.57C117.16 23.2025 116.941 22.9618 116.509 22.8482C116.109 22.7339 115.416 22.595 114.432 22.4315L111.111 21.8567C109.727 21.6096 108.372 21.2852 107.046 20.8837C105.75 20.4508 104.664 19.7991 103.788 18.9286C102.942 18.0574 102.504 16.8561 102.472 15.3246C102.429 13.2417 103.314 11.5993 105.128 10.3973C106.973 9.19464 109.656 8.55688 113.178 8.48399C115.2 8.44215 117.011 8.60385 118.612 8.96909C120.244 9.33369 121.543 9.90436 122.509 10.6811C123.474 11.4272 123.969 12.3823 123.993 13.5462C124.05 14.8014 123.734 15.8192 123.045 16.5995C122.356 17.3799 121.476 17.7812 120.404 17.8033C119.638 17.8192 118.855 17.7435 118.055 17.5762C117.285 17.3776 116.438 17.1806 115.515 16.9852C114.621 16.7585 113.592 16.6419 112.428 16.6354C111.6 16.5913 110.927 16.6511 110.409 16.8151C109.892 16.979 109.636 17.2294 109.643 17.5664C109.651 17.9339 109.963 18.188 110.578 18.3284C111.193 18.4383 112.116 18.5877 113.345 18.7768L116.62 19.3066C118.618 19.6023 120.204 19.9985 121.379 20.4951C122.584 20.9605 123.456 21.6319 123.995 22.5094C124.534 23.3869 124.82 24.6068 124.852 26.1689C124.886 27.7923 124.439 29.1652 123.512 30.2876C122.616 31.3787 121.346 32.2017 119.702 32.7566C118.059 33.3116 116.165 33.6112 114.021 33.6556Z"/>
</mask>
<path d="M23.6557 34.9281C21.9711 34.9629 20.5513 34.4714 19.3964 33.4534C18.2722 32.4348 17.5398 31.1016 17.1992 29.4539L16.3722 29.471L16.5909 40.0385C16.6169 41.2944 16.2865 42.3584 15.5998 43.2307C14.9136 44.1335 13.8508 44.5999 12.4111 44.6297C11.0328 44.6582 9.95149 44.2362 9.16735 43.3638C8.41447 42.5213 8.0244 41.4416 7.99714 40.1245L7.64154 22.9407C7.60985 21.4092 7.52196 20.124 7.37789 19.0851C7.26381 18.0149 7.15195 17.052 7.04232 16.1962C6.89317 14.9123 7.13103 13.8195 7.75589 12.9179C8.38011 11.9857 9.41014 11.4128 10.846 11.1992C12.7094 10.9155 14.0334 11.2252 14.8182 12.1283C15.633 13.0001 16.06 14.3855 16.0993 16.2846L16.145 18.49L16.3297 18.5321C16.4581 17.3344 16.7863 16.1631 17.3142 15.0184C17.8721 13.8424 18.6641 12.876 19.6904 12.1194C20.716 11.332 22.0251 10.9219 23.6179 10.8889C26.2828 10.8338 28.2806 11.865 29.6115 13.9825C30.9723 16.0687 31.6895 18.8884 31.7631 22.4416C31.9329 30.6505 29.2305 34.8127 23.6557 34.9281ZM16.0477 22.6749C16.0579 23.1649 16.127 23.5466 16.2553 23.8197C16.4511 24.3979 16.8428 24.8188 17.4305 25.0824C18.0482 25.3148 18.9543 25.4186 20.1489 25.3939C21.6805 25.3622 22.7171 25.1109 23.259 24.64C23.8315 24.1685 24.1079 23.458 24.0882 22.5085C24.0679 21.5283 23.7777 20.8295 23.2175 20.4121C22.6566 19.964 21.6104 19.7559 20.0789 19.7875C18.8537 19.8129 17.9376 19.9698 17.3307 20.2581C16.7538 20.5152 16.3795 20.9366 16.2077 21.5224C16.0909 21.8006 16.0376 22.1848 16.0477 22.6749Z" stroke="url(#paint0_linear_22_1153)" stroke-width="14" mask="url(#path-1-outside-1_22_1153)"/>
<path d="M38.4668 34.6216C36.2001 34.6685 34.4109 34.0926 33.099 32.894C31.8178 31.6948 31.1544 29.9925 31.1088 27.7871C31.0631 25.5817 31.7653 23.9737 33.2153 22.9631C34.6646 21.9219 36.538 21.3775 38.8352 21.3299C40.183 21.3021 41.4101 21.3686 42.5166 21.5296C43.6231 21.6905 44.624 21.9303 45.5192 22.2488L45.6571 22.246L45.6428 21.5568C45.6282 20.8523 45.3565 20.3063 44.8275 19.9189C44.2979 19.5009 43.6352 19.3154 42.8395 19.3625C42.0737 19.3783 41.4161 19.4379 40.8667 19.5412C40.3479 19.6439 39.6925 19.8107 38.9005 20.0416C37.4379 20.4396 36.1661 20.4352 35.0851 20.0286C34.0042 19.622 33.2516 18.7948 32.8274 17.5472C32.4326 16.2377 32.4864 15.1334 32.9887 14.2344C33.5217 13.3347 34.3344 12.6284 35.427 12.1155C36.367 11.6364 37.4158 11.2316 38.5735 10.9012C39.7617 10.5702 41.045 10.3904 42.4234 10.3619C46.436 10.2789 49.3968 11.1982 51.3058 13.1199C53.2449 15.0103 54.2616 18.2375 54.356 22.8014L54.5034 29.923C54.5294 31.1789 54.1681 32.2282 53.4194 33.0711C52.6708 33.9139 51.6226 34.3493 50.2748 34.3772C48.8046 34.4076 47.6933 34.017 46.9411 33.2051C46.2195 32.3927 45.8463 31.3892 45.8216 30.1946L45.7997 29.1378L44.8808 29.1569C44.8973 29.9533 44.7609 30.7681 44.4717 31.6015C44.2132 32.4342 43.6301 33.1358 42.7226 33.7061C41.8457 34.2759 40.4271 34.581 38.4668 34.6216ZM38.718 24.55C38.7288 25.0707 38.9202 25.4344 39.2922 25.6412C39.6948 25.8474 40.5394 25.9372 41.8259 25.9106C42.9898 25.8865 43.7993 25.7625 44.2543 25.5386C44.7093 25.3146 44.9315 24.9423 44.9207 24.4216C44.9105 23.9315 44.6738 23.5993 44.2106 23.425C43.7467 23.2201 42.9328 23.1297 41.7688 23.1538C40.4823 23.1804 39.6422 23.3051 39.2484 23.5277C38.8847 23.7191 38.7079 24.0599 38.718 24.55Z" stroke="url(#paint1_linear_22_1153)" stroke-width="14" mask="url(#path-1-outside-1_22_1153)"/>
<path d="M71.3998 33.9401C69.7152 33.9749 68.2954 33.4834 67.1405 32.4654C66.0162 31.4468 65.2839 30.1136 64.9433 28.4659L64.1163 28.483L64.335 39.0505C64.361 40.3064 64.0306 41.3704 63.3438 42.2426C62.6577 43.1455 61.5948 43.6118 60.1552 43.6416C58.7768 43.6702 57.6956 43.2482 56.9114 42.3758C56.1586 41.5333 55.7685 40.4535 55.7412 39.1364L55.3856 21.9527C55.3539 20.4212 55.266 19.136 55.122 18.0971C55.0079 17.0269 54.896 16.064 54.7864 15.2082C54.6373 13.9243 54.8751 12.8315 55.5 11.9299C56.1242 10.9977 57.1542 10.4248 58.59 10.2112C60.4534 9.92749 61.7775 10.2372 62.5623 11.1402C63.3771 12.012 63.8041 13.3975 63.8434 15.2966L63.8891 17.502L64.0738 17.5441C64.2022 16.3464 64.5304 15.1751 65.0583 14.0304C65.6162 12.8544 66.4082 11.888 67.4345 11.1313C68.46 10.344 69.7692 9.93389 71.362 9.90093C74.0269 9.84578 76.0247 10.877 77.3556 12.9945C78.7164 15.0807 79.4336 17.9004 79.5071 21.4536C79.677 29.6625 76.9746 33.8247 71.3998 33.9401ZM63.7918 21.6868C63.8019 22.1769 63.8711 22.5585 63.9994 22.8317C64.1952 23.4099 64.5869 23.8308 65.1746 24.0944C65.7923 24.3268 66.6984 24.4306 67.893 24.4059C69.4245 24.3742 70.4612 24.1229 71.0031 23.652C71.5755 23.1805 71.852 22.47 71.8323 21.5204C71.812 20.5403 71.5218 19.8415 70.9615 19.4241C70.4007 18.976 69.3545 18.7678 67.823 18.7995C66.5977 18.8249 65.6817 18.9817 65.0748 19.2701C64.4979 19.5272 64.1235 19.9486 63.9518 20.5344C63.835 20.8126 63.7817 21.1967 63.7918 21.6868Z" stroke="url(#paint2_linear_22_1153)" stroke-width="14" mask="url(#path-1-outside-1_22_1153)"/>
<path d="M86.2109 33.6336C83.9442 33.6805 82.155 33.1046 80.8431 31.906C79.5619 30.7068 78.8985 29.0045 78.8529 26.7991C78.8072 24.5937 79.5094 22.9857 80.9594 21.9751C82.4087 20.9339 84.282 20.3895 86.5793 20.3419C87.9271 20.314 89.1542 20.3806 90.2607 20.5415C91.3672 20.7025 92.3681 20.9423 93.2633 21.2608L93.4012 21.258L93.3869 20.5688C93.3723 19.8643 93.1006 19.3183 92.5716 18.9309C92.042 18.5128 91.3793 18.3274 90.5836 18.3745C89.8178 18.3903 89.1602 18.4499 88.6108 18.5532C88.0919 18.6559 87.4366 18.8227 86.6446 19.0535C85.1819 19.4515 83.9101 19.4472 82.8292 19.0406C81.7483 18.6339 80.9957 17.8068 80.5715 16.5592C80.1767 15.2497 80.2304 14.1454 80.7328 13.2463C81.2657 12.3467 82.0785 11.6404 83.1711 11.1274C84.1111 10.6483 85.1599 10.2436 86.3176 9.91319C87.5058 9.58217 88.7891 9.40239 90.1675 9.37387C94.1801 9.29083 97.1409 10.2102 99.0499 12.1318C100.989 14.0223 102.006 17.2494 102.1 21.8134L102.247 28.935C102.273 30.1908 101.912 31.2402 101.164 32.0831C100.415 32.9259 99.3667 33.3613 98.0189 33.3892C96.5487 33.4196 95.4374 33.0289 94.6852 32.2171C93.9635 31.4047 93.5904 30.4012 93.5657 29.2066L93.5438 28.1498L92.6249 28.1688C92.6414 28.9652 92.505 29.7801 92.2158 30.6135C91.9572 31.4462 91.3742 32.1477 90.4667 32.7181C89.5898 33.2878 88.1712 33.593 86.2109 33.6336ZM86.4621 23.5619C86.4729 24.0827 86.6643 24.4464 87.0363 24.6532C87.4389 24.8594 88.2835 24.9492 89.5699 24.9225C90.7339 24.8985 91.5434 24.7745 91.9984 24.5505C92.4534 24.3266 92.6756 23.9543 92.6648 23.4336C92.6546 22.9435 92.4179 22.6113 91.9547 22.437C91.4908 22.2321 90.6768 22.1417 89.5129 22.1658C88.2264 22.1924 87.3863 22.3171 86.9925 22.5397C86.6288 22.7311 86.452 23.0718 86.4621 23.5619Z" stroke="url(#paint3_linear_22_1153)" stroke-width="14" mask="url(#path-1-outside-1_22_1153)"/>
<path d="M114.021 33.6556C111.908 33.6993 109.943 33.5408 108.128 33.18C106.342 32.7879 104.904 32.1589 103.814 31.2928C102.723 30.396 102.162 29.1972 102.131 27.6963C102.103 26.3792 102.479 25.2836 103.258 24.4095C104.036 23.5353 105.084 23.0846 106.401 23.0574C107.228 23.0403 108.058 23.161 108.891 23.4195C109.754 23.6468 110.662 23.8732 111.617 24.0986C112.572 24.324 113.6 24.4253 114.703 24.4024C115.683 24.3822 116.341 24.3226 116.676 24.2237C117.01 24.0942 117.174 23.8763 117.168 23.57C117.16 23.2025 116.941 22.9618 116.509 22.8482C116.109 22.7339 115.416 22.595 114.432 22.4315L111.111 21.8567C109.727 21.6096 108.372 21.2852 107.046 20.8837C105.75 20.4508 104.664 19.7991 103.788 18.9286C102.942 18.0574 102.504 16.8561 102.472 15.3246C102.429 13.2417 103.314 11.5993 105.128 10.3973C106.973 9.19464 109.656 8.55688 113.178 8.48399C115.2 8.44215 117.011 8.60385 118.612 8.96909C120.244 9.33369 121.543 9.90436 122.509 10.6811C123.474 11.4272 123.969 12.3823 123.993 13.5462C124.05 14.8014 123.734 15.8192 123.045 16.5995C122.356 17.3799 121.476 17.7812 120.404 17.8033C119.638 17.8192 118.855 17.7435 118.055 17.5762C117.285 17.3776 116.438 17.1806 115.515 16.9852C114.621 16.7585 113.592 16.6419 112.428 16.6354C111.6 16.5913 110.927 16.6511 110.409 16.8151C109.892 16.979 109.636 17.2294 109.643 17.5664C109.651 17.9339 109.963 18.188 110.578 18.3284C111.193 18.4383 112.116 18.5877 113.345 18.7768L116.62 19.3066C118.618 19.6023 120.204 19.9985 121.379 20.4951C122.584 20.9605 123.456 21.6319 123.995 22.5094C124.534 23.3869 124.82 24.6068 124.852 26.1689C124.886 27.7923 124.439 29.1652 123.512 30.2876C122.616 31.3787 121.346 32.2017 119.702 32.7566C118.059 33.3116 116.165 33.6112 114.021 33.6556Z" stroke="url(#paint4_linear_22_1153)" stroke-width="14" mask="url(#path-1-outside-1_22_1153)"/>
<mask id="path-2-outside-2_22_1153" maskUnits="userSpaceOnUse" x="119.331" y="-1" width="95" height="54" fill="black">
<rect fill="white" x="119.331" y="-1" width="95" height="54"/>
<path d="M145.021 34.9059C143.083 34.9059 141.462 34.3069 140.159 33.109C138.89 31.9111 138.08 30.3609 137.728 28.4583H136.776V40.6136C136.776 42.0581 136.371 43.2736 135.561 44.2601C134.75 45.2819 133.517 45.7928 131.861 45.7928C130.276 45.7928 129.043 45.2819 128.162 44.2601C127.316 43.2736 126.893 42.0229 126.893 40.5079V20.7424C126.893 18.9807 126.823 17.501 126.682 16.3031C126.576 15.0699 126.471 13.9601 126.365 12.9736C126.224 11.4938 126.524 10.2431 127.263 9.22131C128.003 8.16433 129.201 7.53014 130.857 7.31875C133.006 7.03688 134.521 7.42444 135.402 8.48142C136.318 9.50317 136.776 11.1063 136.776 13.2907V15.8274L136.988 15.8803C137.164 14.5062 137.569 13.1674 138.203 11.8638C138.873 10.5249 139.806 9.4327 141.004 8.58712C142.202 7.7063 143.717 7.2659 145.549 7.2659C148.614 7.2659 150.887 8.49904 152.367 10.9653C153.882 13.3964 154.639 16.6554 154.639 20.7424C154.639 30.1847 151.433 34.9059 145.021 34.9059ZM136.565 20.6367C136.565 21.2004 136.635 21.6408 136.776 21.9579C136.988 22.6273 137.428 23.1206 138.097 23.4377C138.802 23.7195 139.841 23.8605 141.216 23.8605C142.977 23.8605 144.175 23.5962 144.809 23.0677C145.479 22.5392 145.813 21.7289 145.813 20.6367C145.813 19.5092 145.496 18.6989 144.862 18.2056C144.228 17.6771 143.03 17.4129 141.268 17.4129C139.859 17.4129 138.802 17.5714 138.097 17.8885C137.428 18.1704 136.988 18.646 136.776 19.3154C136.635 19.6325 136.565 20.0729 136.565 20.6367Z"/>
<path d="M162.057 34.9059C159.45 34.9059 157.406 34.2012 155.927 32.7919C154.482 31.3826 153.76 29.4096 153.76 26.8728C153.76 24.3361 154.605 22.504 156.296 21.3766C157.988 20.2139 160.154 19.6325 162.797 19.6325C164.347 19.6325 165.756 19.7382 167.025 19.9496C168.293 20.161 169.438 20.4605 170.46 20.8481H170.619V20.0553C170.619 19.245 170.319 18.6108 169.72 18.1528C169.121 17.6595 168.364 17.4305 167.448 17.4657C166.567 17.4657 165.809 17.5186 165.175 17.6243C164.576 17.73 163.819 17.9061 162.903 18.1528C161.211 18.5756 159.749 18.5403 158.516 18.0471C157.283 17.5538 156.437 16.5849 155.979 15.1404C155.557 13.6254 155.645 12.357 156.244 11.3353C156.878 10.3135 157.829 9.52078 159.097 8.95706C160.19 8.42857 161.405 7.98816 162.744 7.63584C164.118 7.28351 165.598 7.10735 167.183 7.10735C171.799 7.10735 175.181 8.23479 177.33 10.4897C179.515 12.7093 180.607 16.444 180.607 21.6936V29.8852C180.607 31.3298 180.167 32.5277 179.286 33.479C178.405 34.4302 177.189 34.9059 175.639 34.9059C173.948 34.9059 172.68 34.4302 171.834 33.479C171.024 32.5277 170.619 31.365 170.619 29.9909V28.7754H169.562C169.562 29.6914 169.385 30.6251 169.033 31.5764C168.716 32.5277 168.029 33.3204 166.972 33.9546C165.95 34.5888 164.312 34.9059 162.057 34.9059ZM162.585 23.332C162.585 23.9309 162.797 24.3537 163.22 24.6003C163.678 24.847 164.647 24.9703 166.126 24.9703C167.465 24.9703 168.399 24.847 168.927 24.6003C169.456 24.3537 169.72 23.9309 169.72 23.332C169.72 22.7682 169.456 22.3807 168.927 22.1693C168.399 21.9227 167.465 21.7993 166.126 21.7993C164.647 21.7993 163.678 21.9227 163.22 22.1693C162.797 22.3807 162.585 22.7682 162.585 23.332Z"/>
<path d="M190.14 45.7928C187.78 45.7928 185.842 45.4052 184.327 44.6301C182.847 43.855 181.685 42.8332 180.839 41.5648C180.134 40.4726 179.729 39.3276 179.623 38.1297C179.553 36.9318 179.782 35.8219 180.311 34.8002C180.839 33.7432 181.632 32.9328 182.689 32.3691C183.781 31.7702 184.873 31.5412 185.965 31.6821C187.058 31.7878 188.062 32.193 188.978 32.8976C189.894 33.567 190.598 34.4479 191.092 35.5401C191.62 36.7027 192.149 37.5483 192.677 38.0768C193.241 38.6405 193.963 38.7638 194.844 38.4468C195.69 38.1649 195.989 37.3898 195.742 36.1214C195.531 34.853 195.073 33.3556 194.368 31.6292H192.413C190.898 31.6292 189.383 31.0831 187.868 29.9909C186.353 28.8987 185.085 27.1723 184.063 24.8117L179.729 14.7704C179.06 13.185 178.989 11.7228 179.518 10.384C180.082 9.04514 181.086 8.07625 182.53 7.47729C183.869 6.87834 185.19 6.84311 186.494 7.37159C187.797 7.90008 188.819 9.02753 189.559 10.7539L193.576 20.1082C194.245 21.6232 194.967 22.7154 195.742 23.3848C196.553 24.0542 197.398 24.1599 198.279 23.7019C199.054 23.2791 199.477 22.6978 199.548 21.9579C199.618 21.1828 199.248 20.2491 198.438 19.1569C198.085 18.6636 197.663 18.1175 197.169 17.5186C196.711 16.9196 196.289 16.2326 195.901 15.4575C195.549 14.6471 195.372 13.7487 195.372 12.7622C195.372 11.1062 195.936 9.74979 197.064 8.69282C198.191 7.60061 199.671 7.0545 201.503 7.0545C203.159 7.0545 204.48 7.58299 205.467 8.63997C206.488 9.69695 206.999 11.071 206.999 12.7622C206.999 13.9601 206.858 15.2813 206.576 16.7259C206.295 18.1704 205.977 19.5092 205.625 20.7424L201.82 34.6416C201.256 36.7204 200.516 38.6053 199.6 40.2965C198.684 41.9876 197.469 43.3265 195.954 44.313C194.439 45.2995 192.501 45.7928 190.14 45.7928Z"/>
</mask>
<path d="M187.387 34.2496L184.514 32.2508C183.924 33.0992 183.039 34.4374 182.287 35.7246C181.914 36.3632 181.539 37.0488 181.246 37.6866C181.1 38.0046 180.949 38.3639 180.83 38.7346C180.727 39.0513 180.563 39.6256 180.563 40.2965H184.063H187.563C187.563 40.7136 187.467 40.9585 187.491 40.8867C187.496 40.8688 187.528 40.7806 187.607 40.6085C187.764 40.2663 188.012 39.8022 188.332 39.255C188.965 38.1707 189.742 36.9927 190.26 36.2484L187.387 34.2496ZM140.159 33.109L135.352 38.1981L135.387 38.2309L135.422 38.2633L140.159 33.109ZM137.728 28.4583L144.61 27.1837L143.55 21.4583H137.728V28.4583ZM136.776 28.4583V21.4583H129.776V28.4583H136.776ZM135.561 44.2601L130.152 39.817L130.114 39.8633L130.076 39.9104L135.561 44.2601ZM128.162 44.2601L122.847 48.8157L122.854 48.8232L122.86 48.8307L128.162 44.2601ZM126.682 16.3031L119.708 16.9009L119.717 17.0111L119.73 17.1209L126.682 16.3031ZM126.365 12.9736L119.397 13.6372L119.4 13.6783L119.405 13.7193L126.365 12.9736ZM127.263 9.22131L132.933 13.3269L132.966 13.2815L132.998 13.2355L127.263 9.22131ZM130.857 7.31875L131.744 14.2624L131.755 14.2609L131.767 14.2593L130.857 7.31875ZM135.402 8.48142L130.025 12.9627L130.106 13.06L130.19 13.1542L135.402 8.48142ZM136.776 15.8274H129.776V21.2929L135.078 22.6184L136.776 15.8274ZM136.988 15.8803L135.29 22.6713L142.929 24.5811L143.931 16.7704L136.988 15.8803ZM138.203 11.8638L131.942 8.73325L131.925 8.76728L131.909 8.80149L138.203 11.8638ZM141.004 8.58712L145.041 14.3059L145.096 14.2668L145.151 14.2267L141.004 8.58712ZM152.367 10.9653L146.364 14.5668L146.395 14.6174L146.426 14.6676L152.367 10.9653ZM136.776 21.9579L143.451 19.85L143.333 19.4746L143.173 19.1149L136.776 21.9579ZM138.097 23.4377L135.101 29.7638L135.297 29.8566L135.498 29.937L138.097 23.4377ZM144.809 23.0677L140.472 17.5735L140.399 17.6309L140.328 17.6902L144.809 23.0677ZM144.862 18.2056L140.381 23.5832L140.471 23.6587L140.565 23.7311L144.862 18.2056ZM138.097 17.8885L140.814 24.34L140.892 24.3069L140.97 24.272L138.097 17.8885ZM136.776 19.3154L143.173 22.1584L143.333 21.7987L143.451 21.4234L136.776 19.3154ZM155.927 32.7919L151.038 37.8024L151.068 37.8318L151.099 37.8609L155.927 32.7919ZM156.296 21.3766L160.179 27.2009L160.221 27.1732L160.262 27.1448L156.296 21.3766ZM167.025 19.9496L168.176 13.0449L168.176 13.0449L167.025 19.9496ZM170.46 20.8481L167.977 27.393L169.177 27.8481H170.46V20.8481ZM170.619 20.8481V27.8481H177.619V20.8481H170.619ZM169.72 18.1528L165.27 23.5563L165.368 23.6366L165.468 23.7133L169.72 18.1528ZM167.448 17.4657V24.4657H167.582L167.717 24.4606L167.448 17.4657ZM165.175 17.6243L164.024 10.7195L163.991 10.725L163.959 10.7308L165.175 17.6243ZM162.903 18.1528L164.6 24.9438L164.662 24.9285L164.722 24.9121L162.903 18.1528ZM158.516 18.0471L155.916 24.5464V24.5464L158.516 18.0471ZM155.979 15.1404L149.237 17.022L149.27 17.1396L149.307 17.2561L155.979 15.1404ZM156.244 11.3353L150.296 7.64372L150.249 7.7189L150.205 7.79522L156.244 11.3353ZM159.097 8.95706L161.94 15.3537L162.044 15.3076L162.146 15.2582L159.097 8.95706ZM162.744 7.63584L161.005 0.855191L160.984 0.860685L160.963 0.866316L162.744 7.63584ZM177.33 10.4897L172.263 15.3192L172.302 15.3598L172.341 15.3997L177.33 10.4897ZM179.286 33.479L184.422 38.2348L184.422 38.2348L179.286 33.479ZM171.834 33.479L166.505 38.0182L166.553 38.0744L166.602 38.1295L171.834 33.479ZM170.619 28.7754H177.619V21.7754H170.619V28.7754ZM169.562 28.7754V21.7754H162.562V28.7754H169.562ZM169.033 31.5764L162.469 29.1452L162.429 29.2534L162.392 29.3628L169.033 31.5764ZM166.972 33.9546L163.37 27.9521L163.325 27.9793L163.28 28.0071L166.972 33.9546ZM163.22 24.6003L159.693 30.6468L159.796 30.707L159.901 30.7636L163.22 24.6003ZM168.927 24.6003L165.967 18.2571L165.967 18.2571L168.927 24.6003ZM168.927 22.1693L165.967 28.5126L166.145 28.5957L166.328 28.6686L168.927 22.1693ZM163.22 22.1693L166.35 28.4303L166.445 28.3829L166.538 28.3326L163.22 22.1693ZM184.327 44.6301L181.079 50.8309L181.109 50.8465L181.139 50.8618L184.327 44.6301ZM180.839 41.5648L174.957 45.3597L174.985 45.4039L175.015 45.4477L180.839 41.5648ZM179.623 38.1297L172.636 38.5407L172.642 38.6429L172.651 38.7449L179.623 38.1297ZM180.311 34.8002L186.528 38.0161L186.55 37.9736L186.572 37.9307L180.311 34.8002ZM182.689 32.3691L185.983 38.5456L186.019 38.5264L186.055 38.5068L182.689 32.3691ZM185.965 31.6821L185.07 38.6245L185.18 38.6388L185.291 38.6495L185.965 31.6821ZM188.978 32.8976L184.71 38.446L184.778 38.4985L184.848 38.5494L188.978 32.8976ZM191.092 35.5401L184.712 38.4212L184.716 38.4289L184.719 38.4367L191.092 35.5401ZM192.677 38.0768L197.627 33.1271V33.1271L192.677 38.0768ZM194.844 38.4468L192.63 31.806L192.551 31.8323L192.473 31.8605L194.844 38.4468ZM195.742 36.1214L188.838 37.2722L188.853 37.3651L188.871 37.4575L195.742 36.1214ZM194.368 31.6292L200.849 28.984L199.072 24.6292H194.368V31.6292ZM187.868 29.9909L183.774 35.6692V35.6692L187.868 29.9909ZM184.063 24.8117L177.636 27.5855L177.639 27.5923L184.063 24.8117ZM179.729 14.7704L173.28 17.4932L173.291 17.5188L173.302 17.5442L179.729 14.7704ZM179.518 10.384L173.066 7.66758L173.036 7.74036L173.007 7.81382L179.518 10.384ZM182.53 7.47729L185.211 13.9435L185.301 13.9065L185.389 13.867L182.53 7.47729ZM186.494 7.37159L189.124 0.884418V0.884418L186.494 7.37159ZM189.559 10.7539L183.125 13.5114L183.127 13.5157L189.559 10.7539ZM193.576 20.1082L187.143 22.87L187.158 22.9037L187.173 22.9373L193.576 20.1082ZM195.742 23.3848L191.167 28.6826L191.225 28.7327L191.284 28.7815L195.742 23.3848ZM198.279 23.7019L201.509 29.9124L201.57 29.8804L201.631 29.8472L198.279 23.7019ZM199.548 21.9579L206.516 22.6216L206.517 22.6066L206.519 22.5916L199.548 21.9579ZM198.438 19.1569L192.742 23.2256L192.778 23.277L192.816 23.3278L198.438 19.1569ZM197.169 17.5186L191.609 21.7707L191.686 21.8711L191.766 21.9685L197.169 17.5186ZM195.901 15.4575L189.481 18.2486L189.556 18.4204L189.64 18.588L195.901 15.4575ZM197.064 8.69282L201.851 13.7996L201.893 13.7604L201.934 13.7205L197.064 8.69282ZM205.467 8.63997L200.349 13.4162L200.391 13.461L200.434 13.5051L205.467 8.63997ZM206.576 16.7259L199.706 15.3853V15.3853L206.576 16.7259ZM205.625 20.7424L198.894 18.8193L198.884 18.8566L198.874 18.894L205.625 20.7424ZM201.82 34.6416L195.068 32.7933L195.066 32.8014L195.064 32.8095L201.82 34.6416ZM199.6 40.2965L193.445 36.9625V36.9625L199.6 40.2965ZM195.954 44.313L199.774 50.179V50.179L195.954 44.313ZM145.021 34.9059V27.9059C144.897 27.9059 144.822 27.8964 144.789 27.8907C144.756 27.8852 144.756 27.8823 144.778 27.8907C144.802 27.8993 144.831 27.9132 144.86 27.9311C144.889 27.9487 144.901 27.9601 144.895 27.9547L140.159 33.109L135.422 38.2633C138.144 40.7647 141.509 41.9059 145.021 41.9059V34.9059ZM140.159 33.109L144.965 28.0199C144.893 27.952 144.723 27.7938 144.61 27.1837L137.728 28.4583L130.845 29.7329C131.436 32.9279 132.887 35.8702 135.352 38.1981L140.159 33.109ZM137.728 28.4583V21.4583H136.776V28.4583V35.4583H137.728V28.4583ZM136.776 28.4583H129.776V40.6136H136.776H143.776V28.4583H136.776ZM136.776 40.6136H129.776C129.776 40.6781 129.768 40.5856 129.832 40.395C129.899 40.1935 130.011 39.9878 130.152 39.817L135.561 44.2601L140.97 48.7033C142.943 46.3006 143.776 43.453 143.776 40.6136H136.776ZM135.561 44.2601L130.076 39.9104C130.429 39.4658 130.893 39.1317 131.349 38.9426C131.759 38.7725 131.984 38.7928 131.861 38.7928V45.7928V52.7928C135.024 52.7928 138.56 51.7439 141.045 48.6099L135.561 44.2601ZM131.861 45.7928V38.7928C131.818 38.7928 132.05 38.7866 132.427 38.9426C132.831 39.1104 133.198 39.3813 133.464 39.6896L128.162 44.2601L122.86 48.8307C125.308 51.6703 128.633 52.7928 131.861 52.7928V45.7928ZM128.162 44.2601L133.477 39.7046C133.646 39.9025 133.771 40.1315 133.842 40.3406C133.908 40.5351 133.893 40.6136 133.893 40.5079H126.893H119.893C119.893 43.401 120.738 46.3545 122.847 48.8157L128.162 44.2601ZM126.893 40.5079H133.893V20.7424H126.893H119.893V40.5079H126.893ZM126.893 20.7424H133.893C133.893 18.8196 133.818 17.0469 133.634 15.4852L126.682 16.3031L119.73 17.1209C119.828 17.9551 119.893 19.1419 119.893 20.7424H126.893ZM126.682 16.3031L133.657 15.7053C133.548 14.4342 133.437 13.2739 133.325 12.2278L126.365 12.9736L119.405 13.7193C119.504 14.6463 119.605 15.7056 119.708 16.9009L126.682 16.3031ZM126.365 12.9736L133.333 12.3099C133.325 12.2208 133.347 12.3239 133.291 12.5557C133.232 12.8042 133.112 13.0804 132.933 13.3269L127.263 9.22131L121.594 5.11574C119.682 7.75567 119.125 10.7819 119.397 13.6372L126.365 12.9736ZM127.263 9.22131L132.998 13.2355C132.7 13.662 132.322 13.9646 131.992 14.1394C131.697 14.2958 131.564 14.2853 131.744 14.2624L130.857 7.31875L129.971 0.375097C126.968 0.758451 123.71 2.09127 121.529 5.20707L127.263 9.22131ZM130.857 7.31875L131.767 14.2593C132.276 14.1926 132.24 14.2743 131.87 14.1796C131.665 14.127 131.358 14.0197 131.008 13.8089C130.651 13.5935 130.312 13.3077 130.025 12.9627L135.402 8.48142L140.78 4.00013C137.623 0.212012 133.042 -0.0277166 129.947 0.378179L130.857 7.31875ZM135.402 8.48142L130.19 13.1542C129.804 12.7238 129.703 12.3757 129.702 12.3731C129.702 12.373 129.722 12.4433 129.741 12.6017C129.76 12.7598 129.776 12.9861 129.776 13.2907H136.776H143.776C143.776 10.3505 143.196 6.68836 140.614 3.80861L135.402 8.48142ZM136.776 13.2907H129.776V15.8274H136.776H143.776V13.2907H136.776ZM136.776 15.8274L135.078 22.6184L135.29 22.6713L136.988 15.8803L138.685 9.08927L138.474 9.03642L136.776 15.8274ZM136.988 15.8803L143.931 16.7704C144.006 16.1854 144.181 15.5777 144.498 14.926L138.203 11.8638L131.909 8.80149C130.957 10.757 130.322 12.827 130.044 14.9901L136.988 15.8803ZM138.203 11.8638L144.464 14.9942C144.628 14.666 144.807 14.4711 145.041 14.3059L141.004 8.58712L136.967 2.86834C134.806 4.3943 133.117 6.38382 131.942 8.73325L138.203 11.8638ZM141.004 8.58712L145.151 14.2267C145.105 14.2602 145.062 14.2854 145.027 14.3024C144.993 14.3191 144.979 14.3221 144.993 14.318C145.023 14.3092 145.19 14.2659 145.549 14.2659V7.2659V0.265897C142.578 0.265897 139.513 0.994827 136.857 2.94756L141.004 8.58712ZM145.549 7.2659V14.2659C146.132 14.2659 146.277 14.3776 146.214 14.3433C146.194 14.3322 146.184 14.3216 146.194 14.3315C146.207 14.3446 146.27 14.4095 146.364 14.5668L152.367 10.9653L158.369 7.36385C155.526 2.62608 150.877 0.265897 145.549 0.265897V7.2659ZM152.367 10.9653L146.426 14.6676C147.013 15.6102 147.639 17.4335 147.639 20.7424H154.639H161.639C161.639 15.8772 160.75 11.1825 158.307 7.26307L152.367 10.9653ZM154.639 20.7424H147.639C147.639 24.8901 146.895 26.7674 146.444 27.4324C146.279 27.6752 146.184 27.7172 146.144 27.7368C146.073 27.7719 145.763 27.9059 145.021 27.9059V34.9059V41.9059C150.211 41.9059 154.942 39.8383 158.025 35.2976C160.78 31.2414 161.639 26.0369 161.639 20.7424H154.639ZM136.565 20.6367H129.565C129.565 21.6414 129.669 23.2013 130.38 24.8009L136.776 21.9579L143.173 19.1149C143.407 19.642 143.495 20.066 143.53 20.2838C143.549 20.4018 143.557 20.4913 143.561 20.5463C143.565 20.6019 143.565 20.6332 143.565 20.6367H136.565ZM136.776 21.9579L130.101 24.0658C130.934 26.7038 132.781 28.665 135.101 29.7638L138.097 23.4377L141.094 17.1115C141.503 17.3053 142.013 17.6374 142.487 18.1678C142.966 18.7051 143.277 19.2993 143.451 19.85L136.776 21.9579ZM138.097 23.4377L135.498 29.937C137.448 30.7171 139.554 30.8605 141.216 30.8605V23.8605V16.8605C140.753 16.8605 140.476 16.8358 140.346 16.8182C140.286 16.8101 140.287 16.8074 140.338 16.8197C140.387 16.8316 140.514 16.8652 140.697 16.9383L138.097 23.4377ZM141.216 23.8605V30.8605C142.404 30.8605 143.686 30.7752 144.943 30.4979C146.146 30.2326 147.797 29.6902 149.291 28.4453L144.809 23.0677L140.328 17.6902C140.778 17.3153 141.187 17.1034 141.448 16.9902C141.709 16.8771 141.886 16.8358 141.927 16.8266C141.986 16.8136 141.789 16.8605 141.216 16.8605V23.8605ZM144.809 23.0677L149.147 28.5619C151.952 26.3469 152.813 23.216 152.813 20.6367H145.813H138.813C138.813 20.4837 138.835 20.014 139.093 19.3913C139.369 18.7211 139.839 18.0733 140.472 17.5735L144.809 23.0677ZM145.813 20.6367H152.813C152.813 18.2701 152.114 14.9777 149.16 12.6802L144.862 18.2056L140.565 23.7311C139.805 23.1402 139.318 22.4015 139.057 21.7341C138.819 21.1254 138.813 20.7002 138.813 20.6367H145.813ZM144.862 18.2056L149.343 12.8281C147.85 11.5832 146.199 11.0408 144.996 10.7754C143.739 10.4981 142.457 10.4129 141.268 10.4129V17.4129V24.4129C141.842 24.4129 142.039 24.4598 141.98 24.4467C141.938 24.4375 141.762 24.3963 141.501 24.2832C141.239 24.17 140.831 23.958 140.381 23.5832L144.862 18.2056ZM141.268 17.4129V10.4129C139.552 10.4129 137.297 10.5724 135.225 11.5051L138.097 17.8885L140.97 24.272C140.753 24.3695 140.593 24.4178 140.517 24.4384C140.439 24.4595 140.414 24.4608 140.457 24.4544C140.499 24.4481 140.586 24.4372 140.727 24.4282C140.866 24.4192 141.046 24.4129 141.268 24.4129V17.4129ZM138.097 17.8885L135.381 11.4371C132.894 12.4842 130.955 14.503 130.101 17.2075L136.776 19.3154L143.451 21.4234C143.272 21.991 142.94 22.6307 142.401 23.2125C141.867 23.7892 141.286 24.1411 140.814 24.34L138.097 17.8885ZM136.776 19.3154L130.38 16.4725C129.669 18.072 129.565 19.632 129.565 20.6367H136.565H143.565C143.565 20.6402 143.565 20.6715 143.561 20.727C143.557 20.7821 143.549 20.8715 143.53 20.9895C143.495 21.2073 143.407 21.6313 143.173 22.1584L136.776 19.3154ZM162.057 34.9059V27.9059C161.375 27.9059 161.005 27.8129 160.851 27.7598C160.723 27.7157 160.725 27.695 160.754 27.723L155.927 32.7919L151.099 37.8609C154.211 40.8252 158.169 41.9059 162.057 41.9059V34.9059ZM155.927 32.7919L160.815 27.7814C160.833 27.7992 160.855 27.8254 160.873 27.8533C160.89 27.8802 160.888 27.8842 160.875 27.8488C160.848 27.7745 160.76 27.4855 160.76 26.8728H153.76H146.76C146.76 30.783 147.916 34.756 151.038 37.8024L155.927 32.7919ZM153.76 26.8728H160.76C160.76 26.3647 160.846 26.3213 160.75 26.5296C160.7 26.6369 160.619 26.7725 160.501 26.9098C160.384 27.0468 160.267 27.1426 160.179 27.2009L156.296 21.3766L152.414 15.5522C148.284 18.305 146.76 22.6541 146.76 26.8728H153.76ZM156.296 21.3766L160.262 27.1448C160.492 26.9868 161.165 26.6325 162.797 26.6325V19.6325V12.6325C159.144 12.6325 155.483 13.4409 152.331 15.6083L156.296 21.3766ZM162.797 19.6325V26.6325C164.037 26.6325 165.054 26.7177 165.874 26.8544L167.025 19.9496L168.176 13.0449C166.459 12.7588 164.657 12.6325 162.797 12.6325V19.6325ZM167.025 19.9496L165.874 26.8544C166.765 27.0029 167.454 27.1946 167.977 27.393L170.46 20.8481L172.943 14.3031C171.422 13.7264 169.821 13.3192 168.176 13.0449L167.025 19.9496ZM170.46 20.8481V27.8481H170.619V20.8481V13.8481H170.46V20.8481ZM170.619 20.8481H177.619V20.0553H170.619H163.619V20.8481H170.619ZM170.619 20.0553H177.619C177.619 17.2533 176.448 14.4852 173.972 12.5923L169.72 18.1528L165.468 23.7133C164.948 23.3155 164.427 22.7296 164.064 21.961C163.709 21.2086 163.619 20.5235 163.619 20.0553H170.619ZM169.72 18.1528L174.17 12.7493C172.013 10.9725 169.481 10.3824 167.179 10.4709L167.448 17.4657L167.717 24.4606C167.519 24.4682 167.149 24.4542 166.677 24.3116C166.188 24.1637 165.699 23.9099 165.27 23.5563L169.72 18.1528ZM167.448 17.4657V10.4657C166.312 10.4657 165.149 10.5321 164.024 10.7195L165.175 17.6243L166.326 24.529C166.47 24.5051 166.822 24.4657 167.448 24.4657V17.4657ZM165.175 17.6243L163.959 10.7308C163.077 10.8863 162.101 11.1193 161.083 11.3935L162.903 18.1528L164.722 24.9121C165.536 24.693 166.075 24.5737 166.392 24.5178L165.175 17.6243ZM162.903 18.1528L161.205 11.3618C160.856 11.4489 160.702 11.4454 160.706 11.4455C160.711 11.4456 160.755 11.4471 160.831 11.4619C160.908 11.477 161.005 11.5036 161.116 11.5477L158.516 18.0471L155.916 24.5464C158.887 25.7345 161.925 25.6126 164.6 24.9438L162.903 18.1528ZM158.516 18.0471L161.116 11.5477C161.493 11.6987 161.901 11.9693 162.231 12.3477C162.543 12.7049 162.642 12.992 162.652 13.0247L155.979 15.1404L149.307 17.2561C150.298 20.3814 152.45 23.1597 155.916 24.5464L158.516 18.0471ZM155.979 15.1404L162.722 13.2588C162.676 13.0951 162.734 13.2117 162.712 13.5378C162.686 13.9002 162.569 14.3867 162.283 14.8753L156.244 11.3353L150.205 7.79522C148.362 10.9392 148.478 14.3028 149.237 17.022L155.979 15.1404ZM156.244 11.3353L162.191 15.0268C162.101 15.1717 161.997 15.2829 161.914 15.352C161.837 15.4158 161.827 15.4044 161.94 15.3537L159.097 8.95706L156.254 2.56038C153.907 3.60369 151.78 5.25321 150.296 7.64372L156.244 11.3353ZM159.097 8.95706L162.146 15.2582C162.78 14.9516 163.563 14.6585 164.525 14.4054L162.744 7.63584L160.963 0.866316C159.247 1.3178 157.599 1.90559 156.049 2.65595L159.097 8.95706ZM162.744 7.63584L164.483 14.4165C165.227 14.2257 166.117 14.1073 167.183 14.1073V7.10735V0.107349C165.079 0.107349 163.01 0.34128 161.005 0.855191L162.744 7.63584ZM167.183 7.10735V14.1073C170.807 14.1073 171.959 15.0004 172.263 15.3192L177.33 10.4897L182.397 5.66012C178.403 1.46922 172.791 0.107349 167.183 0.107349V7.10735ZM177.33 10.4897L172.341 15.3997C172.595 15.6576 173.607 17.0987 173.607 21.6936H180.607H187.607C187.607 15.7892 186.435 9.76111 182.32 5.57969L177.33 10.4897ZM180.607 21.6936H173.607V29.8852H180.607H187.607V21.6936H180.607ZM180.607 29.8852H173.607C173.607 29.8909 173.608 29.7211 173.707 29.4516C173.81 29.1695 173.972 28.9144 174.149 28.7231L179.286 33.479L184.422 38.2348C186.641 35.8381 187.607 32.8753 187.607 29.8852H180.607ZM179.286 33.479L174.149 28.7231C174.432 28.4181 174.794 28.1749 175.163 28.0304C175.505 27.8966 175.702 27.9059 175.639 27.9059V34.9059V41.9059C178.725 41.9059 181.959 40.8948 184.422 38.2348L179.286 33.479ZM175.639 34.9059V27.9059C175.432 27.9059 175.558 27.8749 175.877 27.9948C176.238 28.1302 176.684 28.3988 177.066 28.8284L171.834 33.479L166.602 38.1295C169.176 41.0249 172.641 41.9059 175.639 41.9059V34.9059ZM171.834 33.479L177.163 28.9397C177.311 29.1135 177.446 29.3408 177.533 29.59C177.616 29.8299 177.619 29.9839 177.619 29.9909H170.619H163.619C163.619 32.8509 164.506 35.6715 166.505 38.0182L171.834 33.479ZM170.619 29.9909H177.619V28.7754H170.619H163.619V29.9909H170.619ZM170.619 28.7754V21.7754H169.562V28.7754V35.7754H170.619V28.7754ZM169.562 28.7754H162.562C162.562 28.7772 162.564 28.8888 162.469 29.1452L169.033 31.5764L175.597 34.0076C176.207 32.3614 176.562 30.6057 176.562 28.7754H169.562ZM169.033 31.5764L162.392 29.3628C162.538 28.9271 162.76 28.5649 162.99 28.2999C163.098 28.1751 163.194 28.0875 163.263 28.0315C163.297 28.0037 163.324 27.9838 163.342 27.971C163.36 27.9583 163.37 27.9522 163.37 27.9521L166.972 33.9546L170.573 39.957C172.722 38.6678 174.715 36.667 175.674 33.79L169.033 31.5764ZM166.972 33.9546L163.28 28.0071C163.511 27.8639 163.678 27.7993 163.733 27.7796C163.789 27.7596 163.768 27.7721 163.647 27.7956C163.388 27.8457 162.882 27.9059 162.057 27.9059V34.9059V41.9059C164.65 41.9059 167.929 41.5995 170.663 39.9021L166.972 33.9546ZM162.585 23.332H155.585C155.585 25.7685 156.61 28.8486 159.693 30.6468L163.22 24.6003L166.747 18.5539C167.667 19.0905 168.48 19.9173 169.005 20.9678C169.498 21.9528 169.585 22.8271 169.585 23.332H162.585ZM163.22 24.6003L159.901 30.7636C161.288 31.5103 162.683 31.7297 163.406 31.8218C164.292 31.9345 165.225 31.9703 166.126 31.9703V24.9703V17.9703C165.851 17.9703 165.632 17.9645 165.464 17.956C165.294 17.9474 165.202 17.9374 165.174 17.9338C165.137 17.9292 165.232 17.9386 165.416 17.9862C165.512 18.0112 165.656 18.0527 165.835 18.1186C166.012 18.1837 166.255 18.2847 166.538 18.437L163.22 24.6003ZM166.126 24.9703V31.9703C167.494 31.9703 169.827 31.9052 171.888 30.9436L168.927 24.6003L165.967 18.2571C166.155 18.1693 166.317 18.1076 166.441 18.065C166.566 18.0222 166.667 17.994 166.738 17.976C166.874 17.9416 166.941 17.9345 166.914 17.9381C166.891 17.9411 166.815 17.9499 166.675 17.9574C166.537 17.9649 166.356 17.9703 166.126 17.9703V24.9703ZM168.927 24.6003L171.888 30.9436C173.165 30.3474 174.494 29.3501 175.458 27.8083C176.414 26.2783 176.72 24.6771 176.72 23.332H169.72H162.72C162.72 22.5857 162.894 21.4954 163.586 20.3883C164.285 19.2693 165.218 18.6066 165.967 18.2571L168.927 24.6003ZM169.72 23.332H176.72C176.72 21.9319 176.379 20.2489 175.306 18.6751C174.236 17.1064 172.804 16.1807 171.527 15.67L168.927 22.1693L166.328 28.6686C165.579 28.3693 164.544 27.7431 163.738 26.5619C162.93 25.3757 162.72 24.1683 162.72 23.332H169.72ZM168.927 22.1693L171.888 15.826C169.827 14.8645 167.494 14.7993 166.126 14.7993V21.7993V28.7993C166.356 28.7993 166.537 28.8047 166.675 28.8122C166.815 28.8198 166.891 28.8285 166.914 28.8316C166.941 28.8351 166.874 28.828 166.738 28.7936C166.667 28.7757 166.566 28.7474 166.441 28.7046C166.317 28.662 166.155 28.6003 165.967 28.5126L168.927 22.1693ZM166.126 21.7993V14.7993C165.225 14.7993 164.292 14.8351 163.406 14.9478C162.683 15.0399 161.288 15.2594 159.901 16.006L163.22 22.1693L166.538 28.3326C166.255 28.4849 166.012 28.5859 165.835 28.651C165.656 28.7169 165.512 28.7584 165.416 28.7834C165.232 28.831 165.137 28.8404 165.174 28.8358C165.202 28.8323 165.294 28.8222 165.464 28.8136C165.632 28.8052 165.851 28.7993 166.126 28.7993V21.7993ZM163.22 22.1693L160.089 15.9083C158.695 16.6055 157.438 17.7276 156.599 19.2665C155.798 20.7347 155.585 22.1956 155.585 23.332H162.585H169.585C169.585 23.9046 169.479 24.8898 168.889 25.9705C168.261 27.1218 167.322 27.9445 166.35 28.4303L163.22 22.1693ZM190.14 45.7928V38.7928C188.483 38.7928 187.737 38.5116 187.515 38.3983L184.327 44.6301L181.139 50.8618C183.947 52.2988 187.076 52.7928 190.14 52.7928V45.7928ZM184.327 44.6301L187.575 38.4293C187.033 38.1452 186.797 37.8825 186.663 37.6819L180.839 41.5648L175.015 45.4477C176.572 47.784 178.662 49.5647 181.079 50.8309L184.327 44.6301ZM180.839 41.5648L186.721 37.7699C186.643 37.6491 186.615 37.577 186.606 37.5518C186.598 37.5289 186.597 37.5207 186.596 37.5144L179.623 38.1297L172.651 38.7449C172.864 41.1658 173.687 43.3911 174.957 45.3597L180.839 41.5648ZM179.623 38.1297L186.611 37.7186C186.61 37.6954 186.614 37.734 186.598 37.8135C186.581 37.8949 186.553 37.9672 186.528 38.0161L180.311 34.8002L174.093 31.5842C172.961 33.7731 172.495 36.1432 172.636 38.5407L179.623 38.1297ZM180.311 34.8002L186.572 37.9307C186.525 38.0243 186.438 38.1588 186.305 38.2947C186.173 38.43 186.051 38.5095 185.983 38.5456L182.689 32.3691L179.395 26.1927C177.076 27.4295 175.237 29.2954 174.05 31.6697L180.311 34.8002ZM182.689 32.3691L186.055 38.5068C186.066 38.5008 185.965 38.5568 185.764 38.5992C185.553 38.6433 185.311 38.6557 185.07 38.6245L185.965 31.6821L186.861 24.7396C184.11 24.3847 181.537 25.0173 179.323 26.2314L182.689 32.3691ZM185.965 31.6821L185.291 38.6495C185.178 38.6386 185.047 38.6086 184.918 38.5567C184.792 38.5058 184.722 38.4554 184.71 38.446L188.978 32.8976L193.246 27.3493C191.347 25.8884 189.11 24.9537 186.64 24.7146L185.965 31.6821ZM188.978 32.8976L184.848 38.5494C184.831 38.5369 184.809 38.5197 184.787 38.4978C184.764 38.4759 184.744 38.4537 184.727 38.4332C184.692 38.3889 184.691 38.3754 184.712 38.4212L191.092 35.5401L197.471 32.659C196.509 30.5287 195.056 28.6695 193.108 27.2459L188.978 32.8976ZM191.092 35.5401L184.719 38.4367C185.385 39.9007 186.329 41.6282 187.727 43.0266L192.677 38.0768L197.627 33.1271C197.739 33.2396 197.805 33.3217 197.829 33.353C197.854 33.3852 197.85 33.3834 197.82 33.3363C197.757 33.2353 197.634 33.0179 197.464 32.6434L191.092 35.5401ZM192.677 38.0768L187.727 43.0266C188.939 44.2385 190.547 45.165 192.464 45.4922C194.301 45.806 195.947 45.4893 197.215 45.033L194.844 38.4468L192.473 31.8605C192.86 31.7213 193.704 31.5015 194.82 31.6919C196.014 31.8959 196.979 32.4788 197.627 33.1271L192.677 38.0768ZM194.844 38.4468L197.058 45.0875C199.297 44.3411 201.27 42.6681 202.232 40.1768C203.052 38.0565 202.86 36.0526 202.614 34.7853L195.742 36.1214L188.871 37.4575C188.86 37.3995 188.818 37.1654 188.827 36.7992C188.837 36.4308 188.901 35.8351 189.173 35.1312C189.458 34.3946 189.933 33.6409 190.628 32.9993C191.312 32.368 192.036 32.0042 192.63 31.806L194.844 38.4468ZM195.742 36.1214L202.647 34.9706C202.322 33.0174 201.671 30.9966 200.849 28.984L194.368 31.6292L187.887 34.2745C188.475 35.7147 188.74 36.6887 188.838 37.2722L195.742 36.1214ZM194.368 31.6292V24.6292H192.413V31.6292V38.6292H194.368V31.6292ZM192.413 31.6292V24.6292C192.514 24.6292 192.559 24.6505 192.514 24.6344C192.458 24.6142 192.273 24.5372 191.962 24.3127L187.868 29.9909L183.774 35.6692C186.2 37.4177 189.116 38.6292 192.413 38.6292V31.6292ZM187.868 29.9909L191.962 24.3127C191.786 24.1863 191.189 23.6523 190.487 22.0312L184.063 24.8117L177.639 27.5923C178.981 30.6924 180.92 33.6112 183.774 35.6692L187.868 29.9909ZM184.063 24.8117L190.49 22.038L186.156 11.9967L179.729 14.7704L173.302 17.5442L177.636 27.5855L184.063 24.8117ZM179.729 14.7704L186.178 12.0476C186.108 11.8819 186.156 11.9276 186.166 12.1478C186.178 12.3915 186.136 12.6836 186.029 12.9541L179.518 10.384L173.007 7.81382C171.677 11.183 172.047 14.5724 173.28 17.4932L179.729 14.7704ZM179.518 10.384L185.969 13.1004C185.899 13.2677 185.762 13.4899 185.554 13.6905C185.354 13.8837 185.201 13.9477 185.211 13.9435L182.53 7.47729L179.849 1.0111C176.847 2.25587 174.403 4.49351 173.066 7.66758L179.518 10.384ZM182.53 7.47729L185.389 13.867C185.309 13.9028 185.069 13.9896 184.712 13.9992C184.347 14.0089 184.047 13.9332 183.864 13.8588L186.494 7.37159L189.124 0.884418C185.971 -0.3938 182.667 -0.252489 179.672 1.08756L182.53 7.47729ZM186.494 7.37159L183.864 13.8588C183.677 13.7828 183.506 13.6872 183.358 13.5822C183.212 13.4784 183.112 13.3812 183.051 13.3142C182.936 13.1871 182.992 13.1999 183.125 13.5114L189.559 10.7539L195.993 7.99649C194.778 5.16036 192.649 2.31375 189.124 0.884418L186.494 7.37159ZM189.559 10.7539L183.127 13.5157L187.143 22.87L193.576 20.1082L200.008 17.3464L195.991 7.9921L189.559 10.7539ZM193.576 20.1082L187.173 22.9373C188.032 24.8823 189.269 27.0436 191.167 28.6826L195.742 23.3848L200.318 18.0871C200.528 18.2686 200.559 18.3547 200.458 18.2025C200.362 18.0564 200.194 17.7667 199.978 17.279L193.576 20.1082ZM195.742 23.3848L191.284 28.7815C192.475 29.7652 194.096 30.6596 196.116 30.9121C198.169 31.1687 200.022 30.6854 201.509 29.9124L198.279 23.7019L195.05 17.4914C195.655 17.1765 196.645 16.8693 197.853 17.0202C199.027 17.167 199.82 17.6738 200.201 17.9881L195.742 23.3848ZM198.279 23.7019L201.631 29.8472C204.006 28.5517 206.181 26.1348 206.516 22.6216L199.548 21.9579L192.579 21.2942C192.658 20.4611 192.965 19.5898 193.516 18.8316C194.038 18.1144 194.608 17.7309 194.927 17.5566L198.279 23.7019ZM199.548 21.9579L206.519 22.5916C206.826 19.2158 205.197 16.519 204.059 14.986L198.438 19.1569L192.816 23.3278C192.977 23.5445 192.918 23.515 192.815 23.2549C192.71 22.9885 192.488 22.2991 192.576 21.3241L199.548 21.9579ZM198.438 19.1569L204.134 15.0882C203.667 14.4345 203.141 13.759 202.573 13.0686L197.169 17.5186L191.766 21.9685C192.184 22.4761 192.504 22.8928 192.742 23.2256L198.438 19.1569ZM197.169 17.5186L202.73 13.2664C202.576 13.0658 202.381 12.7641 202.162 12.327L195.901 15.4575L189.64 18.588C190.197 19.701 190.846 20.7734 191.609 21.7707L197.169 17.5186ZM195.901 15.4575L202.32 12.6664C202.353 12.7414 202.368 12.7999 202.374 12.829C202.379 12.8562 202.372 12.8379 202.372 12.7622H195.372H188.372C188.372 14.597 188.704 16.4602 189.481 18.2486L195.901 15.4575ZM195.372 12.7622H202.372C202.372 12.7392 202.374 12.9143 202.259 13.1892C202.14 13.4751 201.973 13.6853 201.851 13.7996L197.064 8.69282L192.276 3.58606C189.628 6.06859 188.372 9.32611 188.372 12.7622H195.372ZM197.064 8.69282L201.934 13.7205C201.873 13.7796 201.794 13.8437 201.7 13.903C201.605 13.9623 201.516 14.004 201.443 14.0311C201.292 14.0866 201.283 14.0545 201.503 14.0545V7.0545V0.0545015C198.179 0.0545015 194.843 1.09766 192.193 3.66514L197.064 8.69282ZM201.503 7.0545V14.0545C201.584 14.0545 201.426 14.0662 201.136 13.9502C200.825 13.8259 200.547 13.6277 200.349 13.4162L205.467 8.63997L210.584 3.86374C208.076 1.17683 204.79 0.0545015 201.503 0.0545015V7.0545ZM205.467 8.63997L200.434 13.5051C200.275 13.3411 200.137 13.1236 200.055 12.9027C199.979 12.6992 199.999 12.6234 199.999 12.7622H206.999H213.999C213.999 9.55006 212.974 6.3345 210.5 3.77482L205.467 8.63997ZM206.999 12.7622H199.999C199.999 13.4219 199.92 14.2865 199.706 15.3853L206.576 16.7259L213.447 18.0664C213.796 16.2762 213.999 14.4983 213.999 12.7622H206.999ZM206.576 16.7259L199.706 15.3853C199.457 16.6616 199.185 17.8038 198.894 18.8193L205.625 20.7424L212.356 22.6654C212.77 21.2147 213.132 19.6791 213.447 18.0664L206.576 16.7259ZM205.625 20.7424L198.874 18.894L195.068 32.7933L201.82 34.6416L208.572 36.49L212.377 22.5907L205.625 20.7424ZM201.82 34.6416L195.064 32.8095C194.625 34.4274 194.075 35.7998 193.445 36.9625L199.6 40.2965L205.755 43.6304C206.958 41.4108 207.887 39.0133 208.576 36.4738L201.82 34.6416ZM199.6 40.2965L193.445 36.9625C193.048 37.6958 192.61 38.1374 192.134 38.447L195.954 44.313L199.774 50.179C202.328 48.5155 204.321 46.2794 205.755 43.6304L199.6 40.2965ZM195.954 44.313L192.134 38.447C192.055 38.4983 191.553 38.7928 190.14 38.7928V45.7928V52.7928C193.449 52.7928 196.822 52.1007 199.774 50.179L195.954 44.313Z" fill="url(#paint5_linear_22_1153)" mask="url(#path-2-outside-2_22_1153)"/>
<g filter="url(#filter0_d_22_1153)">
<g filter="url(#filter1_dii_22_1153)">
<mask id="path-4-outside-3_22_1153" maskUnits="userSpaceOnUse" x="4.99921" y="4.47754" width="122" height="41" fill="black">
<rect fill="white" x="4.99921" y="4.47754" width="122" height="41"/>
<path d="M23.6557 32.9281C21.9711 32.9629 20.5513 32.4714 19.3964 31.4534C18.2722 30.4348 17.5398 29.1016 17.1992 27.4539L16.3722 27.471L16.5909 38.0385C16.6169 39.2944 16.2865 40.3584 15.5998 41.2307C14.9136 42.1335 13.8508 42.5999 12.4111 42.6297C11.0328 42.6582 9.95149 42.2362 9.16735 41.3638C8.41447 40.5213 8.0244 39.4416 7.99714 38.1245L7.64154 20.9407C7.60985 19.4092 7.52196 18.124 7.37789 17.0851C7.26381 16.0149 7.15195 15.052 7.04232 14.1962C6.89317 12.9123 7.13103 11.8195 7.75589 10.9179C8.38011 9.98569 9.41014 9.41279 10.846 9.19922C12.7094 8.91551 14.0334 9.22519 14.8182 10.1283C15.633 11.0001 16.06 12.3855 16.0993 14.2846L16.145 16.49L16.3297 16.5321C16.4581 15.3344 16.7863 14.1631 17.3142 13.0184C17.8721 11.8424 18.6641 10.876 19.6904 10.1194C20.716 9.33205 22.0251 8.92191 23.6179 8.88895C26.2828 8.8338 28.2806 9.86498 29.6115 11.9825C30.9723 14.0687 31.6895 16.8884 31.7631 20.4416C31.9329 28.6505 29.2305 32.8127 23.6557 32.9281ZM16.0477 20.6749C16.0579 21.1649 16.127 21.5466 16.2553 21.8197C16.4511 22.3979 16.8428 22.8188 17.4305 23.0824C18.0482 23.3148 18.9543 23.4186 20.1489 23.3939C21.6805 23.3622 22.7171 23.1109 23.259 22.64C23.8315 22.1685 24.1079 21.458 24.0882 20.5085C24.0679 19.5283 23.7777 18.8295 23.2175 18.4121C22.6566 17.964 21.6104 17.7559 20.0789 17.7875C18.8537 17.8129 17.9376 17.9698 17.3307 18.2581C16.7538 18.5152 16.3795 18.9366 16.2077 19.5224C16.0909 19.8006 16.0376 20.1848 16.0477 20.6749Z"/>
<path d="M38.4668 32.6216C36.2001 32.6685 34.4109 32.0926 33.099 30.894C31.8178 29.6948 31.1544 27.9925 31.1088 25.7871C31.0631 23.5817 31.7653 21.9737 33.2153 20.9631C34.6646 19.9219 36.538 19.3775 38.8352 19.3299C40.183 19.3021 41.4101 19.3686 42.5166 19.5296C43.6231 19.6905 44.624 19.9303 45.5192 20.2488L45.6571 20.246L45.6428 19.5568C45.6282 18.8523 45.3565 18.3063 44.8275 17.9189C44.2979 17.5009 43.6352 17.3154 42.8395 17.3625C42.0737 17.3783 41.4161 17.4379 40.8667 17.5412C40.3479 17.6439 39.6925 17.8107 38.9005 18.0416C37.4379 18.4396 36.1661 18.4352 35.0851 18.0286C34.0042 17.622 33.2516 16.7948 32.8274 15.5472C32.4326 14.2377 32.4864 13.1334 32.9887 12.2344C33.5217 11.3347 34.3344 10.6284 35.427 10.1155C36.367 9.63636 37.4158 9.23161 38.5735 8.90121C39.7617 8.57019 41.045 8.39041 42.4234 8.36189C46.436 8.27885 49.3968 9.19818 51.3058 11.1199C53.2449 13.0103 54.2616 16.2375 54.356 20.8014L54.5034 27.923C54.5294 29.1789 54.1681 30.2282 53.4194 31.0711C52.6708 31.914 51.6226 32.3493 50.2748 32.3772C48.8046 32.4076 47.6933 32.017 46.9411 31.2051C46.2195 30.3927 45.8463 29.3892 45.8216 28.1946L45.7997 27.1378L44.8808 27.1569C44.8973 27.9533 44.7609 28.7681 44.4717 29.6015C44.2132 30.4342 43.6301 31.1358 42.7226 31.7061C41.8457 32.2759 40.4271 32.581 38.4668 32.6216ZM38.718 22.55C38.7288 23.0707 38.9202 23.4344 39.2922 23.6412C39.6948 23.8474 40.5394 23.9372 41.8259 23.9106C42.9898 23.8865 43.7993 23.7625 44.2543 23.5386C44.7093 23.3146 44.9315 22.9423 44.9207 22.4216C44.9105 21.9315 44.6738 21.5993 44.2106 21.425C43.7467 21.2201 42.9328 21.1297 41.7688 21.1538C40.4823 21.1804 39.6422 21.3051 39.2484 21.5277C38.8847 21.7191 38.7079 22.0599 38.718 22.55Z"/>
<path d="M71.3998 31.9401C69.7152 31.9749 68.2954 31.4834 67.1405 30.4654C66.0162 29.4468 65.2838 28.1136 64.9433 26.4659L64.1163 26.483L64.335 37.0505C64.361 38.3064 64.0306 39.3704 63.3438 40.2426C62.6577 41.1455 61.5948 41.6118 60.1552 41.6416C58.7768 41.6702 57.6956 41.2482 56.9114 40.3758C56.1585 39.5333 55.7685 38.4535 55.7412 37.1364L55.3856 19.9527C55.3539 18.4212 55.266 17.136 55.122 16.0971C55.0079 15.0269 54.896 14.064 54.7864 13.2082C54.6373 11.9243 54.8751 10.8315 55.5 9.9299C56.1242 8.99767 57.1542 8.42477 58.59 8.2112C60.4534 7.92749 61.7775 8.23717 62.5623 9.14023C63.3771 10.012 63.8041 11.3975 63.8434 13.2966L63.8891 15.502L64.0738 15.5441C64.2022 14.3464 64.5304 13.1751 65.0583 12.0304C65.6162 10.8544 66.4082 9.88802 67.4344 9.13134C68.46 8.34403 69.7692 7.93389 71.362 7.90093C74.0269 7.84578 76.0247 8.87696 77.3556 10.9945C78.7164 13.0807 79.4336 15.9004 79.5071 19.4536C79.677 27.6625 76.9746 31.8247 71.3998 31.9401ZM63.7918 19.6868C63.8019 20.1769 63.8711 20.5585 63.9993 20.8317C64.1952 21.4099 64.5869 21.8308 65.1746 22.0944C65.7923 22.3268 66.6984 22.4306 67.893 22.4059C69.4245 22.3742 70.4612 22.1229 71.0031 21.652C71.5755 21.1805 71.8519 20.47 71.8323 19.5204C71.812 18.5403 71.5218 17.8415 70.9615 17.4241C70.4007 16.976 69.3545 16.7678 67.823 16.7995C66.5977 16.8249 65.6817 16.9817 65.0748 17.2701C64.4979 17.5272 64.1235 17.9486 63.9518 18.5344C63.835 18.8126 63.7816 19.1967 63.7918 19.6868Z"/>
<path d="M86.2109 31.6336C83.9442 31.6805 82.155 31.1046 80.8431 29.906C79.5619 28.7068 78.8985 27.0045 78.8529 24.7991C78.8072 22.5937 79.5094 20.9857 80.9594 19.9751C82.4087 18.9339 84.282 18.3895 86.5793 18.3419C87.9271 18.314 89.1542 18.3806 90.2607 18.5415C91.3672 18.7025 92.3681 18.9423 93.2633 19.2608L93.4012 19.258L93.3869 18.5688C93.3723 17.8643 93.1005 17.3183 92.5716 16.9309C92.042 16.5128 91.3793 16.3274 90.5836 16.3745C89.8178 16.3903 89.1602 16.4499 88.6107 16.5532C88.0919 16.6559 87.4365 16.8227 86.6446 17.0535C85.1819 17.4515 83.9101 17.4472 82.8292 17.0406C81.7482 16.6339 80.9957 15.8068 80.5715 14.5592C80.1767 13.2497 80.2304 12.1454 80.7328 11.2463C81.2657 10.3467 82.0785 9.64035 83.1711 9.12744C84.1111 8.64833 85.1599 8.24359 86.3175 7.91319C87.5058 7.58217 88.7891 7.40239 90.1675 7.37387C94.1801 7.29083 97.1409 8.21016 99.0499 10.1318C100.989 12.0223 102.006 15.2494 102.1 19.8134L102.247 26.935C102.273 28.1908 101.912 29.2402 101.163 30.0831C100.415 30.9259 99.3667 31.3613 98.0189 31.3892C96.5487 31.4196 95.4374 31.0289 94.6852 30.2171C93.9635 29.4047 93.5904 28.4012 93.5657 27.2066L93.5438 26.1498L92.6249 26.1688C92.6413 26.9652 92.505 27.7801 92.2158 28.6135C91.9572 29.4462 91.3742 30.1477 90.4667 30.7181C89.5898 31.2878 88.1712 31.593 86.2109 31.6336ZM86.4621 21.5619C86.4729 22.0827 86.6643 22.4464 87.0363 22.6532C87.4389 22.8594 88.2835 22.9492 89.5699 22.9225C90.7339 22.8985 91.5434 22.7745 91.9984 22.5505C92.4534 22.3266 92.6755 21.9543 92.6648 21.4336C92.6546 20.9435 92.4179 20.6113 91.9547 20.437C91.4908 20.2321 90.6768 20.1417 89.5129 20.1658C88.2264 20.1924 87.3863 20.3171 86.9925 20.5397C86.6288 20.7311 86.452 21.0718 86.4621 21.5619Z"/>
<path d="M114.021 31.6556C111.908 31.6993 109.943 31.5408 108.128 31.18C106.342 30.7879 104.904 30.1589 103.814 29.2928C102.723 28.396 102.162 27.1972 102.131 25.6963C102.103 24.3792 102.479 23.2836 103.258 22.4095C104.036 21.5353 105.084 21.0846 106.401 21.0574C107.228 21.0403 108.058 21.161 108.891 21.4195C109.754 21.6468 110.662 21.8732 111.617 22.0986C112.572 22.324 113.6 22.4253 114.703 22.4024C115.683 22.3822 116.341 22.3226 116.676 22.2237C117.01 22.0942 117.174 21.8763 117.168 21.57C117.16 21.2025 116.941 20.9618 116.509 20.8482C116.109 20.7339 115.416 20.595 114.432 20.4315L111.111 19.8567C109.727 19.6096 108.372 19.2852 107.046 18.8837C105.75 18.4508 104.664 17.7991 103.788 16.9286C102.942 16.0574 102.504 14.8561 102.472 13.3246C102.429 11.2417 103.314 9.59926 105.128 8.39727C106.973 7.19464 109.656 6.55688 113.178 6.48399C115.2 6.44215 117.011 6.60385 118.612 6.96909C120.244 7.33369 121.543 7.90436 122.509 8.6811C123.474 9.42722 123.969 10.3823 123.993 11.5462C124.05 12.8014 123.734 13.8192 123.045 14.5995C122.356 15.3799 121.476 15.7812 120.404 15.8033C119.638 15.8192 118.855 15.7435 118.055 15.5762C117.285 15.3776 116.438 15.1806 115.515 14.9852C114.621 14.7585 113.592 14.6419 112.428 14.6354C111.6 14.5913 110.927 14.6511 110.409 14.8151C109.892 14.979 109.636 15.2294 109.643 15.5664C109.651 15.9339 109.963 16.188 110.578 16.3284C111.193 16.4383 112.116 16.5877 113.345 16.7768L116.62 17.3066C118.618 17.6023 120.204 17.9985 121.379 18.4951C122.584 18.9605 123.456 19.6319 123.995 20.5094C124.534 21.3869 124.82 22.6068 124.852 24.1689C124.886 25.7923 124.439 27.1652 123.512 28.2876C122.615 29.3787 121.345 30.2017 119.702 30.7566C118.059 31.3116 116.165 31.6112 114.021 31.6556Z"/>
</mask>
<path d="M23.6557 32.9281C21.9711 32.9629 20.5513 32.4714 19.3964 31.4534C18.2722 30.4348 17.5398 29.1016 17.1992 27.4539L16.3722 27.471L16.5909 38.0385C16.6169 39.2944 16.2865 40.3584 15.5998 41.2307C14.9136 42.1335 13.8508 42.5999 12.4111 42.6297C11.0328 42.6582 9.95149 42.2362 9.16735 41.3638C8.41447 40.5213 8.0244 39.4416 7.99714 38.1245L7.64154 20.9407C7.60985 19.4092 7.52196 18.124 7.37789 17.0851C7.26381 16.0149 7.15195 15.052 7.04232 14.1962C6.89317 12.9123 7.13103 11.8195 7.75589 10.9179C8.38011 9.98569 9.41014 9.41279 10.846 9.19922C12.7094 8.91551 14.0334 9.22519 14.8182 10.1283C15.633 11.0001 16.06 12.3855 16.0993 14.2846L16.145 16.49L16.3297 16.5321C16.4581 15.3344 16.7863 14.1631 17.3142 13.0184C17.8721 11.8424 18.6641 10.876 19.6904 10.1194C20.716 9.33205 22.0251 8.92191 23.6179 8.88895C26.2828 8.8338 28.2806 9.86498 29.6115 11.9825C30.9723 14.0687 31.6895 16.8884 31.7631 20.4416C31.9329 28.6505 29.2305 32.8127 23.6557 32.9281ZM16.0477 20.6749C16.0579 21.1649 16.127 21.5466 16.2553 21.8197C16.4511 22.3979 16.8428 22.8188 17.4305 23.0824C18.0482 23.3148 18.9543 23.4186 20.1489 23.3939C21.6805 23.3622 22.7171 23.1109 23.259 22.64C23.8315 22.1685 24.1079 21.458 24.0882 20.5085C24.0679 19.5283 23.7777 18.8295 23.2175 18.4121C22.6566 17.964 21.6104 17.7559 20.0789 17.7875C18.8537 17.8129 17.9376 17.9698 17.3307 18.2581C16.7538 18.5152 16.3795 18.9366 16.2077 19.5224C16.0909 19.8006 16.0376 20.1848 16.0477 20.6749Z" fill="url(#paint6_linear_22_1153)"/>
<path d="M38.4668 32.6216C36.2001 32.6685 34.4109 32.0926 33.099 30.894C31.8178 29.6948 31.1544 27.9925 31.1088 25.7871C31.0631 23.5817 31.7653 21.9737 33.2153 20.9631C34.6646 19.9219 36.538 19.3775 38.8352 19.3299C40.183 19.3021 41.4101 19.3686 42.5166 19.5296C43.6231 19.6905 44.624 19.9303 45.5192 20.2488L45.6571 20.246L45.6428 19.5568C45.6282 18.8523 45.3565 18.3063 44.8275 17.9189C44.2979 17.5009 43.6352 17.3154 42.8395 17.3625C42.0737 17.3783 41.4161 17.4379 40.8667 17.5412C40.3479 17.6439 39.6925 17.8107 38.9005 18.0416C37.4379 18.4396 36.1661 18.4352 35.0851 18.0286C34.0042 17.622 33.2516 16.7948 32.8274 15.5472C32.4326 14.2377 32.4864 13.1334 32.9887 12.2344C33.5217 11.3347 34.3344 10.6284 35.427 10.1155C36.367 9.63636 37.4158 9.23161 38.5735 8.90121C39.7617 8.57019 41.045 8.39041 42.4234 8.36189C46.436 8.27885 49.3968 9.19818 51.3058 11.1199C53.2449 13.0103 54.2616 16.2375 54.356 20.8014L54.5034 27.923C54.5294 29.1789 54.1681 30.2282 53.4194 31.0711C52.6708 31.914 51.6226 32.3493 50.2748 32.3772C48.8046 32.4076 47.6933 32.017 46.9411 31.2051C46.2195 30.3927 45.8463 29.3892 45.8216 28.1946L45.7997 27.1378L44.8808 27.1569C44.8973 27.9533 44.7609 28.7681 44.4717 29.6015C44.2132 30.4342 43.6301 31.1358 42.7226 31.7061C41.8457 32.2759 40.4271 32.581 38.4668 32.6216ZM38.718 22.55C38.7288 23.0707 38.9202 23.4344 39.2922 23.6412C39.6948 23.8474 40.5394 23.9372 41.8259 23.9106C42.9898 23.8865 43.7993 23.7625 44.2543 23.5386C44.7093 23.3146 44.9315 22.9423 44.9207 22.4216C44.9105 21.9315 44.6738 21.5993 44.2106 21.425C43.7467 21.2201 42.9328 21.1297 41.7688 21.1538C40.4823 21.1804 39.6422 21.3051 39.2484 21.5277C38.8847 21.7191 38.7079 22.0599 38.718 22.55Z" fill="url(#paint7_linear_22_1153)"/>
<path d="M71.3998 31.9401C69.7152 31.9749 68.2954 31.4834 67.1405 30.4654C66.0162 29.4468 65.2838 28.1136 64.9433 26.4659L64.1163 26.483L64.335 37.0505C64.361 38.3064 64.0306 39.3704 63.3438 40.2426C62.6577 41.1455 61.5948 41.6118 60.1552 41.6416C58.7768 41.6702 57.6956 41.2482 56.9114 40.3758C56.1585 39.5333 55.7685 38.4535 55.7412 37.1364L55.3856 19.9527C55.3539 18.4212 55.266 17.136 55.122 16.0971C55.0079 15.0269 54.896 14.064 54.7864 13.2082C54.6373 11.9243 54.8751 10.8315 55.5 9.9299C56.1242 8.99767 57.1542 8.42477 58.59 8.2112C60.4534 7.92749 61.7775 8.23717 62.5623 9.14023C63.3771 10.012 63.8041 11.3975 63.8434 13.2966L63.8891 15.502L64.0738 15.5441C64.2022 14.3464 64.5304 13.1751 65.0583 12.0304C65.6162 10.8544 66.4082 9.88802 67.4344 9.13134C68.46 8.34403 69.7692 7.93389 71.362 7.90093C74.0269 7.84578 76.0247 8.87696 77.3556 10.9945C78.7164 13.0807 79.4336 15.9004 79.5071 19.4536C79.677 27.6625 76.9746 31.8247 71.3998 31.9401ZM63.7918 19.6868C63.8019 20.1769 63.8711 20.5585 63.9993 20.8317C64.1952 21.4099 64.5869 21.8308 65.1746 22.0944C65.7923 22.3268 66.6984 22.4306 67.893 22.4059C69.4245 22.3742 70.4612 22.1229 71.0031 21.652C71.5755 21.1805 71.8519 20.47 71.8323 19.5204C71.812 18.5403 71.5218 17.8415 70.9615 17.4241C70.4007 16.976 69.3545 16.7678 67.823 16.7995C66.5977 16.8249 65.6817 16.9817 65.0748 17.2701C64.4979 17.5272 64.1235 17.9486 63.9518 18.5344C63.835 18.8126 63.7816 19.1967 63.7918 19.6868Z" fill="url(#paint8_linear_22_1153)"/>
<path d="M86.2109 31.6336C83.9442 31.6805 82.155 31.1046 80.8431 29.906C79.5619 28.7068 78.8985 27.0045 78.8529 24.7991C78.8072 22.5937 79.5094 20.9857 80.9594 19.9751C82.4087 18.9339 84.282 18.3895 86.5793 18.3419C87.9271 18.314 89.1542 18.3806 90.2607 18.5415C91.3672 18.7025 92.3681 18.9423 93.2633 19.2608L93.4012 19.258L93.3869 18.5688C93.3723 17.8643 93.1005 17.3183 92.5716 16.9309C92.042 16.5128 91.3793 16.3274 90.5836 16.3745C89.8178 16.3903 89.1602 16.4499 88.6107 16.5532C88.0919 16.6559 87.4365 16.8227 86.6446 17.0535C85.1819 17.4515 83.9101 17.4472 82.8292 17.0406C81.7482 16.6339 80.9957 15.8068 80.5715 14.5592C80.1767 13.2497 80.2304 12.1454 80.7328 11.2463C81.2657 10.3467 82.0785 9.64035 83.1711 9.12744C84.1111 8.64833 85.1599 8.24359 86.3175 7.91319C87.5058 7.58217 88.7891 7.40239 90.1675 7.37387C94.1801 7.29083 97.1409 8.21016 99.0499 10.1318C100.989 12.0223 102.006 15.2494 102.1 19.8134L102.247 26.935C102.273 28.1908 101.912 29.2402 101.163 30.0831C100.415 30.9259 99.3667 31.3613 98.0189 31.3892C96.5487 31.4196 95.4374 31.0289 94.6852 30.2171C93.9635 29.4047 93.5904 28.4012 93.5657 27.2066L93.5438 26.1498L92.6249 26.1688C92.6413 26.9652 92.505 27.7801 92.2158 28.6135C91.9572 29.4462 91.3742 30.1477 90.4667 30.7181C89.5898 31.2878 88.1712 31.593 86.2109 31.6336ZM86.4621 21.5619C86.4729 22.0827 86.6643 22.4464 87.0363 22.6532C87.4389 22.8594 88.2835 22.9492 89.5699 22.9225C90.7339 22.8985 91.5434 22.7745 91.9984 22.5505C92.4534 22.3266 92.6755 21.9543 92.6648 21.4336C92.6546 20.9435 92.4179 20.6113 91.9547 20.437C91.4908 20.2321 90.6768 20.1417 89.5129 20.1658C88.2264 20.1924 87.3863 20.3171 86.9925 20.5397C86.6288 20.7311 86.452 21.0718 86.4621 21.5619Z" fill="url(#paint9_linear_22_1153)"/>
<path d="M114.021 31.6556C111.908 31.6993 109.943 31.5408 108.128 31.18C106.342 30.7879 104.904 30.1589 103.814 29.2928C102.723 28.396 102.162 27.1972 102.131 25.6963C102.103 24.3792 102.479 23.2836 103.258 22.4095C104.036 21.5353 105.084 21.0846 106.401 21.0574C107.228 21.0403 108.058 21.161 108.891 21.4195C109.754 21.6468 110.662 21.8732 111.617 22.0986C112.572 22.324 113.6 22.4253 114.703 22.4024C115.683 22.3822 116.341 22.3226 116.676 22.2237C117.01 22.0942 117.174 21.8763 117.168 21.57C117.16 21.2025 116.941 20.9618 116.509 20.8482C116.109 20.7339 115.416 20.595 114.432 20.4315L111.111 19.8567C109.727 19.6096 108.372 19.2852 107.046 18.8837C105.75 18.4508 104.664 17.7991 103.788 16.9286C102.942 16.0574 102.504 14.8561 102.472 13.3246C102.429 11.2417 103.314 9.59926 105.128 8.39727C106.973 7.19464 109.656 6.55688 113.178 6.48399C115.2 6.44215 117.011 6.60385 118.612 6.96909C120.244 7.33369 121.543 7.90436 122.509 8.6811C123.474 9.42722 123.969 10.3823 123.993 11.5462C124.05 12.8014 123.734 13.8192 123.045 14.5995C122.356 15.3799 121.476 15.7812 120.404 15.8033C119.638 15.8192 118.855 15.7435 118.055 15.5762C117.285 15.3776 116.438 15.1806 115.515 14.9852C114.621 14.7585 113.592 14.6419 112.428 14.6354C111.6 14.5913 110.927 14.6511 110.409 14.8151C109.892 14.979 109.636 15.2294 109.643 15.5664C109.651 15.9339 109.963 16.188 110.578 16.3284C111.193 16.4383 112.116 16.5877 113.345 16.7768L116.62 17.3066C118.618 17.6023 120.204 17.9985 121.379 18.4951C122.584 18.9605 123.456 19.6319 123.995 20.5094C124.534 21.3869 124.82 22.6068 124.852 24.1689C124.886 25.7923 124.439 27.1652 123.512 28.2876C122.615 29.3787 121.345 30.2017 119.702 30.7566C118.059 31.3116 116.165 31.6112 114.021 31.6556Z" fill="url(#paint10_linear_22_1153)"/>
<path d="M23.6557 32.9281C21.9711 32.9629 20.5513 32.4714 19.3964 31.4534C18.2722 30.4348 17.5398 29.1016 17.1992 27.4539L16.3722 27.471L16.5909 38.0385C16.6169 39.2944 16.2865 40.3584 15.5998 41.2307C14.9136 42.1335 13.8508 42.5999 12.4111 42.6297C11.0328 42.6582 9.95149 42.2362 9.16735 41.3638C8.41447 40.5213 8.0244 39.4416 7.99714 38.1245L7.64154 20.9407C7.60985 19.4092 7.52196 18.124 7.37789 17.0851C7.26381 16.0149 7.15195 15.052 7.04232 14.1962C6.89317 12.9123 7.13103 11.8195 7.75589 10.9179C8.38011 9.98569 9.41014 9.41279 10.846 9.19922C12.7094 8.91551 14.0334 9.22519 14.8182 10.1283C15.633 11.0001 16.06 12.3855 16.0993 14.2846L16.145 16.49L16.3297 16.5321C16.4581 15.3344 16.7863 14.1631 17.3142 13.0184C17.8721 11.8424 18.6641 10.876 19.6904 10.1194C20.716 9.33205 22.0251 8.92191 23.6179 8.88895C26.2828 8.8338 28.2806 9.86498 29.6115 11.9825C30.9723 14.0687 31.6895 16.8884 31.7631 20.4416C31.9329 28.6505 29.2305 32.8127 23.6557 32.9281ZM16.0477 20.6749C16.0579 21.1649 16.127 21.5466 16.2553 21.8197C16.4511 22.3979 16.8428 22.8188 17.4305 23.0824C18.0482 23.3148 18.9543 23.4186 20.1489 23.3939C21.6805 23.3622 22.7171 23.1109 23.259 22.64C23.8315 22.1685 24.1079 21.458 24.0882 20.5085C24.0679 19.5283 23.7777 18.8295 23.2175 18.4121C22.6566 17.964 21.6104 17.7559 20.0789 17.7875C18.8537 17.8129 17.9376 17.9698 17.3307 18.2581C16.7538 18.5152 16.3795 18.9366 16.2077 19.5224C16.0909 19.8006 16.0376 20.1848 16.0477 20.6749Z" stroke="#1C0B12" stroke-width="4" mask="url(#path-4-outside-3_22_1153)"/>
<path d="M38.4668 32.6216C36.2001 32.6685 34.4109 32.0926 33.099 30.894C31.8178 29.6948 31.1544 27.9925 31.1088 25.7871C31.0631 23.5817 31.7653 21.9737 33.2153 20.9631C34.6646 19.9219 36.538 19.3775 38.8352 19.3299C40.183 19.3021 41.4101 19.3686 42.5166 19.5296C43.6231 19.6905 44.624 19.9303 45.5192 20.2488L45.6571 20.246L45.6428 19.5568C45.6282 18.8523 45.3565 18.3063 44.8275 17.9189C44.2979 17.5009 43.6352 17.3154 42.8395 17.3625C42.0737 17.3783 41.4161 17.4379 40.8667 17.5412C40.3479 17.6439 39.6925 17.8107 38.9005 18.0416C37.4379 18.4396 36.1661 18.4352 35.0851 18.0286C34.0042 17.622 33.2516 16.7948 32.8274 15.5472C32.4326 14.2377 32.4864 13.1334 32.9887 12.2344C33.5217 11.3347 34.3344 10.6284 35.427 10.1155C36.367 9.63636 37.4158 9.23161 38.5735 8.90121C39.7617 8.57019 41.045 8.39041 42.4234 8.36189C46.436 8.27885 49.3968 9.19818 51.3058 11.1199C53.2449 13.0103 54.2616 16.2375 54.356 20.8014L54.5034 27.923C54.5294 29.1789 54.1681 30.2282 53.4194 31.0711C52.6708 31.914 51.6226 32.3493 50.2748 32.3772C48.8046 32.4076 47.6933 32.017 46.9411 31.2051C46.2195 30.3927 45.8463 29.3892 45.8216 28.1946L45.7997 27.1378L44.8808 27.1569C44.8973 27.9533 44.7609 28.7681 44.4717 29.6015C44.2132 30.4342 43.6301 31.1358 42.7226 31.7061C41.8457 32.2759 40.4271 32.581 38.4668 32.6216ZM38.718 22.55C38.7288 23.0707 38.9202 23.4344 39.2922 23.6412C39.6948 23.8474 40.5394 23.9372 41.8259 23.9106C42.9898 23.8865 43.7993 23.7625 44.2543 23.5386C44.7093 23.3146 44.9315 22.9423 44.9207 22.4216C44.9105 21.9315 44.6738 21.5993 44.2106 21.425C43.7467 21.2201 42.9328 21.1297 41.7688 21.1538C40.4823 21.1804 39.6422 21.3051 39.2484 21.5277C38.8847 21.7191 38.7079 22.0599 38.718 22.55Z" stroke="#1C0B12" stroke-width="4" mask="url(#path-4-outside-3_22_1153)"/>
<path d="M71.3998 31.9401C69.7152 31.9749 68.2954 31.4834 67.1405 30.4654C66.0162 29.4468 65.2838 28.1136 64.9433 26.4659L64.1163 26.483L64.335 37.0505C64.361 38.3064 64.0306 39.3704 63.3438 40.2426C62.6577 41.1455 61.5948 41.6118 60.1552 41.6416C58.7768 41.6702 57.6956 41.2482 56.9114 40.3758C56.1585 39.5333 55.7685 38.4535 55.7412 37.1364L55.3856 19.9527C55.3539 18.4212 55.266 17.136 55.122 16.0971C55.0079 15.0269 54.896 14.064 54.7864 13.2082C54.6373 11.9243 54.8751 10.8315 55.5 9.9299C56.1242 8.99767 57.1542 8.42477 58.59 8.2112C60.4534 7.92749 61.7775 8.23717 62.5623 9.14023C63.3771 10.012 63.8041 11.3975 63.8434 13.2966L63.8891 15.502L64.0738 15.5441C64.2022 14.3464 64.5304 13.1751 65.0583 12.0304C65.6162 10.8544 66.4082 9.88802 67.4344 9.13134C68.46 8.34403 69.7692 7.93389 71.362 7.90093C74.0269 7.84578 76.0247 8.87696 77.3556 10.9945C78.7164 13.0807 79.4336 15.9004 79.5071 19.4536C79.677 27.6625 76.9746 31.8247 71.3998 31.9401ZM63.7918 19.6868C63.8019 20.1769 63.8711 20.5585 63.9993 20.8317C64.1952 21.4099 64.5869 21.8308 65.1746 22.0944C65.7923 22.3268 66.6984 22.4306 67.893 22.4059C69.4245 22.3742 70.4612 22.1229 71.0031 21.652C71.5755 21.1805 71.8519 20.47 71.8323 19.5204C71.812 18.5403 71.5218 17.8415 70.9615 17.4241C70.4007 16.976 69.3545 16.7678 67.823 16.7995C66.5977 16.8249 65.6817 16.9817 65.0748 17.2701C64.4979 17.5272 64.1235 17.9486 63.9518 18.5344C63.835 18.8126 63.7816 19.1967 63.7918 19.6868Z" stroke="#1C0B12" stroke-width="4" mask="url(#path-4-outside-3_22_1153)"/>
<path d="M86.2109 31.6336C83.9442 31.6805 82.155 31.1046 80.8431 29.906C79.5619 28.7068 78.8985 27.0045 78.8529 24.7991C78.8072 22.5937 79.5094 20.9857 80.9594 19.9751C82.4087 18.9339 84.282 18.3895 86.5793 18.3419C87.9271 18.314 89.1542 18.3806 90.2607 18.5415C91.3672 18.7025 92.3681 18.9423 93.2633 19.2608L93.4012 19.258L93.3869 18.5688C93.3723 17.8643 93.1005 17.3183 92.5716 16.9309C92.042 16.5128 91.3793 16.3274 90.5836 16.3745C89.8178 16.3903 89.1602 16.4499 88.6107 16.5532C88.0919 16.6559 87.4365 16.8227 86.6446 17.0535C85.1819 17.4515 83.9101 17.4472 82.8292 17.0406C81.7482 16.6339 80.9957 15.8068 80.5715 14.5592C80.1767 13.2497 80.2304 12.1454 80.7328 11.2463C81.2657 10.3467 82.0785 9.64035 83.1711 9.12744C84.1111 8.64833 85.1599 8.24359 86.3175 7.91319C87.5058 7.58217 88.7891 7.40239 90.1675 7.37387C94.1801 7.29083 97.1409 8.21016 99.0499 10.1318C100.989 12.0223 102.006 15.2494 102.1 19.8134L102.247 26.935C102.273 28.1908 101.912 29.2402 101.163 30.0831C100.415 30.9259 99.3667 31.3613 98.0189 31.3892C96.5487 31.4196 95.4374 31.0289 94.6852 30.2171C93.9635 29.4047 93.5904 28.4012 93.5657 27.2066L93.5438 26.1498L92.6249 26.1688C92.6413 26.9652 92.505 27.7801 92.2158 28.6135C91.9572 29.4462 91.3742 30.1477 90.4667 30.7181C89.5898 31.2878 88.1712 31.593 86.2109 31.6336ZM86.4621 21.5619C86.4729 22.0827 86.6643 22.4464 87.0363 22.6532C87.4389 22.8594 88.2835 22.9492 89.5699 22.9225C90.7339 22.8985 91.5434 22.7745 91.9984 22.5505C92.4534 22.3266 92.6755 21.9543 92.6648 21.4336C92.6546 20.9435 92.4179 20.6113 91.9547 20.437C91.4908 20.2321 90.6768 20.1417 89.5129 20.1658C88.2264 20.1924 87.3863 20.3171 86.9925 20.5397C86.6288 20.7311 86.452 21.0718 86.4621 21.5619Z" stroke="#1C0B12" stroke-width="4" mask="url(#path-4-outside-3_22_1153)"/>
<path d="M114.021 31.6556C111.908 31.6993 109.943 31.5408 108.128 31.18C106.342 30.7879 104.904 30.1589 103.814 29.2928C102.723 28.396 102.162 27.1972 102.131 25.6963C102.103 24.3792 102.479 23.2836 103.258 22.4095C104.036 21.5353 105.084 21.0846 106.401 21.0574C107.228 21.0403 108.058 21.161 108.891 21.4195C109.754 21.6468 110.662 21.8732 111.617 22.0986C112.572 22.324 113.6 22.4253 114.703 22.4024C115.683 22.3822 116.341 22.3226 116.676 22.2237C117.01 22.0942 117.174 21.8763 117.168 21.57C117.16 21.2025 116.941 20.9618 116.509 20.8482C116.109 20.7339 115.416 20.595 114.432 20.4315L111.111 19.8567C109.727 19.6096 108.372 19.2852 107.046 18.8837C105.75 18.4508 104.664 17.7991 103.788 16.9286C102.942 16.0574 102.504 14.8561 102.472 13.3246C102.429 11.2417 103.314 9.59926 105.128 8.39727C106.973 7.19464 109.656 6.55688 113.178 6.48399C115.2 6.44215 117.011 6.60385 118.612 6.96909C120.244 7.33369 121.543 7.90436 122.509 8.6811C123.474 9.42722 123.969 10.3823 123.993 11.5462C124.05 12.8014 123.734 13.8192 123.045 14.5995C122.356 15.3799 121.476 15.7812 120.404 15.8033C119.638 15.8192 118.855 15.7435 118.055 15.5762C117.285 15.3776 116.438 15.1806 115.515 14.9852C114.621 14.7585 113.592 14.6419 112.428 14.6354C111.6 14.5913 110.927 14.6511 110.409 14.8151C109.892 14.979 109.636 15.2294 109.643 15.5664C109.651 15.9339 109.963 16.188 110.578 16.3284C111.193 16.4383 112.116 16.5877 113.345 16.7768L116.62 17.3066C118.618 17.6023 120.204 17.9985 121.379 18.4951C122.584 18.9605 123.456 19.6319 123.995 20.5094C124.534 21.3869 124.82 22.6068 124.852 24.1689C124.886 25.7923 124.439 27.1652 123.512 28.2876C122.615 29.3787 121.345 30.2017 119.702 30.7566C118.059 31.3116 116.165 31.6112 114.021 31.6556Z" stroke="#1C0B12" stroke-width="4" mask="url(#path-4-outside-3_22_1153)"/>
</g>
<g filter="url(#filter2_di_22_1153)">
<mask id="path-5-outside-4_22_1153" maskUnits="userSpaceOnUse" x="124.331" y="3" width="85" height="43" fill="black">
<rect fill="white" x="124.331" y="3" width="85" height="43"/>
<path d="M145.021 32.9059C143.083 32.9059 141.462 32.3069 140.159 31.109C138.89 29.9111 138.08 28.3609 137.728 26.4583H136.776V38.6136C136.776 40.0581 136.371 41.2736 135.561 42.2601C134.75 43.2819 133.517 43.7928 131.861 43.7928C130.276 43.7928 129.043 43.2819 128.162 42.2601C127.316 41.2736 126.893 40.0229 126.893 38.5079V18.7424C126.893 16.9807 126.823 15.501 126.682 14.3031C126.576 13.0699 126.471 11.9601 126.365 10.9736C126.224 9.49381 126.524 8.24305 127.263 7.22131C128.003 6.16433 129.201 5.53014 130.857 5.31875C133.006 5.03688 134.521 5.42444 135.402 6.48142C136.318 7.50317 136.776 9.10625 136.776 11.2907V13.8274L136.988 13.8803C137.164 12.5062 137.569 11.1674 138.203 9.86375C138.873 8.52491 139.806 7.4327 141.004 6.58712C142.202 5.7063 143.717 5.2659 145.549 5.2659C148.614 5.2659 150.887 6.49904 152.367 8.96532C153.882 11.3964 154.639 14.6554 154.639 18.7424C154.639 28.1847 151.433 32.9059 145.021 32.9059ZM136.565 18.6367C136.565 19.2004 136.635 19.6408 136.776 19.9579C136.988 20.6273 137.428 21.1206 138.097 21.4377C138.802 21.7195 139.841 21.8605 141.216 21.8605C142.977 21.8605 144.175 21.5962 144.809 21.0677C145.479 20.5392 145.813 19.7289 145.813 18.6367C145.813 17.5092 145.496 16.6989 144.862 16.2056C144.228 15.6771 143.03 15.4129 141.268 15.4129C139.859 15.4129 138.802 15.5714 138.097 15.8885C137.428 16.1704 136.988 16.646 136.776 17.3154C136.635 17.6325 136.565 18.0729 136.565 18.6367Z"/>
<path d="M162.057 32.9059C159.45 32.9059 157.406 32.2012 155.927 30.7919C154.482 29.3826 153.76 27.4096 153.76 24.8728C153.76 22.3361 154.605 20.504 156.296 19.3766C157.988 18.2139 160.154 17.6325 162.797 17.6325C164.347 17.6325 165.756 17.7382 167.025 17.9496C168.293 18.161 169.438 18.4605 170.46 18.8481H170.619V18.0553C170.619 17.245 170.319 16.6108 169.72 16.1528C169.121 15.6595 168.364 15.4305 167.448 15.4657C166.567 15.4657 165.809 15.5186 165.175 15.6243C164.576 15.73 163.819 15.9061 162.903 16.1528C161.211 16.5756 159.749 16.5403 158.516 16.0471C157.283 15.5538 156.437 14.5849 155.979 13.1404C155.557 11.6254 155.645 10.357 156.244 9.33526C156.878 8.31352 157.829 7.52078 159.097 6.95706C160.19 6.42857 161.405 5.98816 162.744 5.63584C164.118 5.28351 165.598 5.10735 167.183 5.10735C171.799 5.10735 175.181 6.23479 177.33 8.48968C179.515 10.7093 180.607 14.444 180.607 19.6936V27.8852C180.607 29.3298 180.167 30.5277 179.286 31.479C178.405 32.4302 177.189 32.9059 175.639 32.9059C173.948 32.9059 172.68 32.4302 171.834 31.479C171.024 30.5277 170.619 29.365 170.619 27.9909V26.7754H169.562C169.562 27.6915 169.385 28.6251 169.033 29.5764C168.716 30.5277 168.029 31.3204 166.972 31.9546C165.95 32.5888 164.312 32.9059 162.057 32.9059ZM162.585 21.332C162.585 21.9309 162.797 22.3537 163.22 22.6003C163.678 22.847 164.647 22.9703 166.126 22.9703C167.465 22.9703 168.399 22.847 168.927 22.6003C169.456 22.3537 169.72 21.9309 169.72 21.332C169.72 20.7682 169.456 20.3807 168.927 20.1693C168.399 19.9227 167.465 19.7993 166.126 19.7993C164.647 19.7993 163.678 19.9227 163.22 20.1693C162.797 20.3807 162.585 20.7682 162.585 21.332Z"/>
<path d="M190.14 43.7928C187.78 43.7928 185.842 43.4052 184.327 42.6301C182.847 41.855 181.685 40.8332 180.839 39.5648C180.134 38.4726 179.729 37.3276 179.623 36.1297C179.553 34.9318 179.782 33.8219 180.311 32.8002C180.839 31.7432 181.632 30.9328 182.689 30.3691C183.781 29.7702 184.873 29.5412 185.965 29.6821C187.058 29.7878 188.062 30.193 188.978 30.8976C189.894 31.567 190.598 32.4479 191.092 33.5401C191.62 34.7027 192.149 35.5483 192.677 36.0768C193.241 36.6405 193.963 36.7638 194.844 36.4468C195.69 36.1649 195.989 35.3898 195.742 34.1214C195.531 32.853 195.073 31.3556 194.368 29.6292H192.413C190.898 29.6292 189.383 29.0831 187.868 27.9909C186.353 26.8987 185.085 25.1723 184.063 22.8117L179.729 12.7704C179.06 11.185 178.989 9.72282 179.518 8.38398C180.082 7.04514 181.086 6.07625 182.53 5.47729C183.869 4.87834 185.19 4.84311 186.494 5.37159C187.797 5.90008 188.819 7.02753 189.559 8.75392L193.576 18.1082C194.245 19.6232 194.967 20.7154 195.742 21.3848C196.553 22.0542 197.398 22.1599 198.279 21.7019C199.054 21.2791 199.477 20.6978 199.548 19.9579C199.618 19.1828 199.248 18.2491 198.438 17.1569C198.085 16.6636 197.663 16.1175 197.169 15.5186C196.711 14.9196 196.289 14.2326 195.901 13.4575C195.549 12.6471 195.372 11.7487 195.372 10.7622C195.372 9.10625 195.936 7.74979 197.064 6.69282C198.191 5.60061 199.671 5.0545 201.503 5.0545C203.159 5.0545 204.48 5.58299 205.467 6.63997C206.488 7.69695 206.999 9.07102 206.999 10.7622C206.999 11.9601 206.858 13.2813 206.576 14.7259C206.295 16.1704 205.977 17.5092 205.625 18.7424L201.82 32.6416C201.256 34.7204 200.516 36.6053 199.6 38.2965C198.684 39.9876 197.469 41.3265 195.954 42.313C194.439 43.2995 192.501 43.7928 190.14 43.7928Z"/>
</mask>
<path d="M145.021 32.9059C143.083 32.9059 141.462 32.3069 140.159 31.109C138.89 29.9111 138.08 28.3609 137.728 26.4583H136.776V38.6136C136.776 40.0581 136.371 41.2736 135.561 42.2601C134.75 43.2819 133.517 43.7928 131.861 43.7928C130.276 43.7928 129.043 43.2819 128.162 42.2601C127.316 41.2736 126.893 40.0229 126.893 38.5079V18.7424C126.893 16.9807 126.823 15.501 126.682 14.3031C126.576 13.0699 126.471 11.9601 126.365 10.9736C126.224 9.49381 126.524 8.24305 127.263 7.22131C128.003 6.16433 129.201 5.53014 130.857 5.31875C133.006 5.03688 134.521 5.42444 135.402 6.48142C136.318 7.50317 136.776 9.10625 136.776 11.2907V13.8274L136.988 13.8803C137.164 12.5062 137.569 11.1674 138.203 9.86375C138.873 8.52491 139.806 7.4327 141.004 6.58712C142.202 5.7063 143.717 5.2659 145.549 5.2659C148.614 5.2659 150.887 6.49904 152.367 8.96532C153.882 11.3964 154.639 14.6554 154.639 18.7424C154.639 28.1847 151.433 32.9059 145.021 32.9059ZM136.565 18.6367C136.565 19.2004 136.635 19.6408 136.776 19.9579C136.988 20.6273 137.428 21.1206 138.097 21.4377C138.802 21.7195 139.841 21.8605 141.216 21.8605C142.977 21.8605 144.175 21.5962 144.809 21.0677C145.479 20.5392 145.813 19.7289 145.813 18.6367C145.813 17.5092 145.496 16.6989 144.862 16.2056C144.228 15.6771 143.03 15.4129 141.268 15.4129C139.859 15.4129 138.802 15.5714 138.097 15.8885C137.428 16.1704 136.988 16.646 136.776 17.3154C136.635 17.6325 136.565 18.0729 136.565 18.6367Z" fill="url(#paint11_linear_22_1153)"/>
<path d="M162.057 32.9059C159.45 32.9059 157.406 32.2012 155.927 30.7919C154.482 29.3826 153.76 27.4096 153.76 24.8728C153.76 22.3361 154.605 20.504 156.296 19.3766C157.988 18.2139 160.154 17.6325 162.797 17.6325C164.347 17.6325 165.756 17.7382 167.025 17.9496C168.293 18.161 169.438 18.4605 170.46 18.8481H170.619V18.0553C170.619 17.245 170.319 16.6108 169.72 16.1528C169.121 15.6595 168.364 15.4305 167.448 15.4657C166.567 15.4657 165.809 15.5186 165.175 15.6243C164.576 15.73 163.819 15.9061 162.903 16.1528C161.211 16.5756 159.749 16.5403 158.516 16.0471C157.283 15.5538 156.437 14.5849 155.979 13.1404C155.557 11.6254 155.645 10.357 156.244 9.33526C156.878 8.31352 157.829 7.52078 159.097 6.95706C160.19 6.42857 161.405 5.98816 162.744 5.63584C164.118 5.28351 165.598 5.10735 167.183 5.10735C171.799 5.10735 175.181 6.23479 177.33 8.48968C179.515 10.7093 180.607 14.444 180.607 19.6936V27.8852C180.607 29.3298 180.167 30.5277 179.286 31.479C178.405 32.4302 177.189 32.9059 175.639 32.9059C173.948 32.9059 172.68 32.4302 171.834 31.479C171.024 30.5277 170.619 29.365 170.619 27.9909V26.7754H169.562C169.562 27.6915 169.385 28.6251 169.033 29.5764C168.716 30.5277 168.029 31.3204 166.972 31.9546C165.95 32.5888 164.312 32.9059 162.057 32.9059ZM162.585 21.332C162.585 21.9309 162.797 22.3537 163.22 22.6003C163.678 22.847 164.647 22.9703 166.126 22.9703C167.465 22.9703 168.399 22.847 168.927 22.6003C169.456 22.3537 169.72 21.9309 169.72 21.332C169.72 20.7682 169.456 20.3807 168.927 20.1693C168.399 19.9227 167.465 19.7993 166.126 19.7993C164.647 19.7993 163.678 19.9227 163.22 20.1693C162.797 20.3807 162.585 20.7682 162.585 21.332Z" fill="url(#paint12_linear_22_1153)"/>
<path d="M190.14 43.7928C187.78 43.7928 185.842 43.4052 184.327 42.6301C182.847 41.855 181.685 40.8332 180.839 39.5648C180.134 38.4726 179.729 37.3276 179.623 36.1297C179.553 34.9318 179.782 33.8219 180.311 32.8002C180.839 31.7432 181.632 30.9328 182.689 30.3691C183.781 29.7702 184.873 29.5412 185.965 29.6821C187.058 29.7878 188.062 30.193 188.978 30.8976C189.894 31.567 190.598 32.4479 191.092 33.5401C191.62 34.7027 192.149 35.5483 192.677 36.0768C193.241 36.6405 193.963 36.7638 194.844 36.4468C195.69 36.1649 195.989 35.3898 195.742 34.1214C195.531 32.853 195.073 31.3556 194.368 29.6292H192.413C190.898 29.6292 189.383 29.0831 187.868 27.9909C186.353 26.8987 185.085 25.1723 184.063 22.8117L179.729 12.7704C179.06 11.185 178.989 9.72282 179.518 8.38398C180.082 7.04514 181.086 6.07625 182.53 5.47729C183.869 4.87834 185.19 4.84311 186.494 5.37159C187.797 5.90008 188.819 7.02753 189.559 8.75392L193.576 18.1082C194.245 19.6232 194.967 20.7154 195.742 21.3848C196.553 22.0542 197.398 22.1599 198.279 21.7019C199.054 21.2791 199.477 20.6978 199.548 19.9579C199.618 19.1828 199.248 18.2491 198.438 17.1569C198.085 16.6636 197.663 16.1175 197.169 15.5186C196.711 14.9196 196.289 14.2326 195.901 13.4575C195.549 12.6471 195.372 11.7487 195.372 10.7622C195.372 9.10625 195.936 7.74979 197.064 6.69282C198.191 5.60061 199.671 5.0545 201.503 5.0545C203.159 5.0545 204.48 5.58299 205.467 6.63997C206.488 7.69695 206.999 9.07102 206.999 10.7622C206.999 11.9601 206.858 13.2813 206.576 14.7259C206.295 16.1704 205.977 17.5092 205.625 18.7424L201.82 32.6416C201.256 34.7204 200.516 36.6053 199.6 38.2965C198.684 39.9876 197.469 41.3265 195.954 42.313C194.439 43.2995 192.501 43.7928 190.14 43.7928Z" fill="url(#paint13_linear_22_1153)"/>
<path d="M145.021 32.9059C143.083 32.9059 141.462 32.3069 140.159 31.109C138.89 29.9111 138.08 28.3609 137.728 26.4583H136.776V38.6136C136.776 40.0581 136.371 41.2736 135.561 42.2601C134.75 43.2819 133.517 43.7928 131.861 43.7928C130.276 43.7928 129.043 43.2819 128.162 42.2601C127.316 41.2736 126.893 40.0229 126.893 38.5079V18.7424C126.893 16.9807 126.823 15.501 126.682 14.3031C126.576 13.0699 126.471 11.9601 126.365 10.9736C126.224 9.49381 126.524 8.24305 127.263 7.22131C128.003 6.16433 129.201 5.53014 130.857 5.31875C133.006 5.03688 134.521 5.42444 135.402 6.48142C136.318 7.50317 136.776 9.10625 136.776 11.2907V13.8274L136.988 13.8803C137.164 12.5062 137.569 11.1674 138.203 9.86375C138.873 8.52491 139.806 7.4327 141.004 6.58712C142.202 5.7063 143.717 5.2659 145.549 5.2659C148.614 5.2659 150.887 6.49904 152.367 8.96532C153.882 11.3964 154.639 14.6554 154.639 18.7424C154.639 28.1847 151.433 32.9059 145.021 32.9059ZM136.565 18.6367C136.565 19.2004 136.635 19.6408 136.776 19.9579C136.988 20.6273 137.428 21.1206 138.097 21.4377C138.802 21.7195 139.841 21.8605 141.216 21.8605C142.977 21.8605 144.175 21.5962 144.809 21.0677C145.479 20.5392 145.813 19.7289 145.813 18.6367C145.813 17.5092 145.496 16.6989 144.862 16.2056C144.228 15.6771 143.03 15.4129 141.268 15.4129C139.859 15.4129 138.802 15.5714 138.097 15.8885C137.428 16.1704 136.988 16.646 136.776 17.3154C136.635 17.6325 136.565 18.0729 136.565 18.6367Z" stroke="#1C0B12" stroke-width="4" mask="url(#path-5-outside-4_22_1153)"/>
<path d="M162.057 32.9059C159.45 32.9059 157.406 32.2012 155.927 30.7919C154.482 29.3826 153.76 27.4096 153.76 24.8728C153.76 22.3361 154.605 20.504 156.296 19.3766C157.988 18.2139 160.154 17.6325 162.797 17.6325C164.347 17.6325 165.756 17.7382 167.025 17.9496C168.293 18.161 169.438 18.4605 170.46 18.8481H170.619V18.0553C170.619 17.245 170.319 16.6108 169.72 16.1528C169.121 15.6595 168.364 15.4305 167.448 15.4657C166.567 15.4657 165.809 15.5186 165.175 15.6243C164.576 15.73 163.819 15.9061 162.903 16.1528C161.211 16.5756 159.749 16.5403 158.516 16.0471C157.283 15.5538 156.437 14.5849 155.979 13.1404C155.557 11.6254 155.645 10.357 156.244 9.33526C156.878 8.31352 157.829 7.52078 159.097 6.95706C160.19 6.42857 161.405 5.98816 162.744 5.63584C164.118 5.28351 165.598 5.10735 167.183 5.10735C171.799 5.10735 175.181 6.23479 177.33 8.48968C179.515 10.7093 180.607 14.444 180.607 19.6936V27.8852C180.607 29.3298 180.167 30.5277 179.286 31.479C178.405 32.4302 177.189 32.9059 175.639 32.9059C173.948 32.9059 172.68 32.4302 171.834 31.479C171.024 30.5277 170.619 29.365 170.619 27.9909V26.7754H169.562C169.562 27.6915 169.385 28.6251 169.033 29.5764C168.716 30.5277 168.029 31.3204 166.972 31.9546C165.95 32.5888 164.312 32.9059 162.057 32.9059ZM162.585 21.332C162.585 21.9309 162.797 22.3537 163.22 22.6003C163.678 22.847 164.647 22.9703 166.126 22.9703C167.465 22.9703 168.399 22.847 168.927 22.6003C169.456 22.3537 169.72 21.9309 169.72 21.332C169.72 20.7682 169.456 20.3807 168.927 20.1693C168.399 19.9227 167.465 19.7993 166.126 19.7993C164.647 19.7993 163.678 19.9227 163.22 20.1693C162.797 20.3807 162.585 20.7682 162.585 21.332Z" stroke="#1C0B12" stroke-width="4" mask="url(#path-5-outside-4_22_1153)"/>
<path d="M190.14 43.7928C187.78 43.7928 185.842 43.4052 184.327 42.6301C182.847 41.855 181.685 40.8332 180.839 39.5648C180.134 38.4726 179.729 37.3276 179.623 36.1297C179.553 34.9318 179.782 33.8219 180.311 32.8002C180.839 31.7432 181.632 30.9328 182.689 30.3691C183.781 29.7702 184.873 29.5412 185.965 29.6821C187.058 29.7878 188.062 30.193 188.978 30.8976C189.894 31.567 190.598 32.4479 191.092 33.5401C191.62 34.7027 192.149 35.5483 192.677 36.0768C193.241 36.6405 193.963 36.7638 194.844 36.4468C195.69 36.1649 195.989 35.3898 195.742 34.1214C195.531 32.853 195.073 31.3556 194.368 29.6292H192.413C190.898 29.6292 189.383 29.0831 187.868 27.9909C186.353 26.8987 185.085 25.1723 184.063 22.8117L179.729 12.7704C179.06 11.185 178.989 9.72282 179.518 8.38398C180.082 7.04514 181.086 6.07625 182.53 5.47729C183.869 4.87834 185.19 4.84311 186.494 5.37159C187.797 5.90008 188.819 7.02753 189.559 8.75392L193.576 18.1082C194.245 19.6232 194.967 20.7154 195.742 21.3848C196.553 22.0542 197.398 22.1599 198.279 21.7019C199.054 21.2791 199.477 20.6978 199.548 19.9579C199.618 19.1828 199.248 18.2491 198.438 17.1569C198.085 16.6636 197.663 16.1175 197.169 15.5186C196.711 14.9196 196.289 14.2326 195.901 13.4575C195.549 12.6471 195.372 11.7487 195.372 10.7622C195.372 9.10625 195.936 7.74979 197.064 6.69282C198.191 5.60061 199.671 5.0545 201.503 5.0545C203.159 5.0545 204.48 5.58299 205.467 6.63997C206.488 7.69695 206.999 9.07102 206.999 10.7622C206.999 11.9601 206.858 13.2813 206.576 14.7259C206.295 16.1704 205.977 17.5092 205.625 18.7424L201.82 32.6416C201.256 34.7204 200.516 36.6053 199.6 38.2965C198.684 39.9876 197.469 41.3265 195.954 42.313C194.439 43.2995 192.501 43.7928 190.14 43.7928Z" stroke="#1C0B12" stroke-width="4" mask="url(#path-5-outside-4_22_1153)"/>
</g>
</g>
<defs>
<filter id="filter0_d_22_1153" x="4.99945" y="2" width="204" height="43.793" filterUnits="userSpaceOnUse" color-interpolation-filters="sRGB">
<feFlood flood-opacity="0" result="BackgroundImageFix"/>
<feColorMatrix in="SourceAlpha" type="matrix" values="0 0 0 0 0 0 0 0 0 0 0 0 0 0 0 0 0 0 127 0" result="hardAlpha"/>
<feOffset dy="-1"/>
<feComposite in2="hardAlpha" operator="out"/>
<feColorMatrix type="matrix" values="0 0 0 0 0.109804 0 0 0 0 0.0431373 0 0 0 0 0.0705882 0 0 0 1 0"/>
<feBlend mode="normal" in2="BackgroundImageFix" result="effect1_dropShadow_22_1153"/>
<feBlend mode="normal" in="SourceGraphic" in2="effect1_dropShadow_22_1153" result="shape"/>
</filter>
<filter id="filter1_dii_22_1153" x="4.99945" y="4.47754" width="121.854" height="45.1533" filterUnits="userSpaceOnUse" color-interpolation-filters="sRGB">
<feFlood flood-opacity="0" result="BackgroundImageFix"/>
<feColorMatrix in="SourceAlpha" type="matrix" values="0 0 0 0 0 0 0 0 0 0 0 0 0 0 0 0 0 0 127 0" result="hardAlpha"/>
<feOffset dy="5"/>
<feComposite in2="hardAlpha" operator="out"/>
<feColorMatrix type="matrix" values="0 0 0 0 0.109804 0 0 0 0 0.0431373 0 0 0 0 0.0705882 0 0 0 1 0"/>
<feBlend mode="normal" in2="BackgroundImageFix" result="effect1_dropShadow_22_1153"/>
<feBlend mode="normal" in="SourceGraphic" in2="effect1_dropShadow_22_1153" result="shape"/>
<feColorMatrix in="SourceAlpha" type="matrix" values="0 0 0 0 0 0 0 0 0 0 0 0 0 0 0 0 0 0 127 0" result="hardAlpha"/>
<feOffset dy="-3"/>
<feComposite in2="hardAlpha" operator="arithmetic" k2="-1" k3="1"/>
<feColorMatrix type="matrix" values="0 0 0 0 1 0 0 0 0 0.802559 0 0 0 0 0.376502 0 0 0 1 0"/>
<feBlend mode="normal" in2="shape" result="effect2_innerShadow_22_1153"/>
<feColorMatrix in="SourceAlpha" type="matrix" values="0 0 0 0 0 0 0 0 0 0 0 0 0 0 0 0 0 0 127 0" result="hardAlpha"/>
<feOffset dx="1" dy="3"/>
<feComposite in2="hardAlpha" operator="arithmetic" k2="-1" k3="1"/>
<feColorMatrix type="matrix" values="0 0 0 0 1 0 0 0 0 1 0 0 0 0 1 0 0 0 1 0"/>
<feBlend mode="normal" in2="effect2_innerShadow_22_1153" result="effect3_innerShadow_22_1153"/>
</filter>
<filter id="filter2_di_22_1153" x="124.331" y="3" width="84.6678" height="47.793" filterUnits="userSpaceOnUse" color-interpolation-filters="sRGB">
<feFlood flood-opacity="0" result="BackgroundImageFix"/>
<feColorMatrix in="SourceAlpha" type="matrix" values="0 0 0 0 0 0 0 0 0 0 0 0 0 0 0 0 0 0 127 0" result="hardAlpha"/>
<feOffset dy="5"/>
<feComposite in2="hardAlpha" operator="out"/>
<feColorMatrix type="matrix" values="0 0 0 0 0.109804 0 0 0 0 0.0431373 0 0 0 0 0.0705882 0 0 0 1 0"/>
<feBlend mode="normal" in2="BackgroundImageFix" result="effect1_dropShadow_22_1153"/>
<feBlend mode="normal" in="SourceGraphic" in2="effect1_dropShadow_22_1153" result="shape"/>
<feColorMatrix in="SourceAlpha" type="matrix" values="0 0 0 0 0 0 0 0 0 0 0 0 0 0 0 0 0 0 127 0" result="hardAlpha"/>
<feOffset dx="2" dy="3"/>
<feComposite in2="hardAlpha" operator="arithmetic" k2="-1" k3="1"/>
<feColorMatrix type="matrix" values="0 0 0 0 1 0 0 0 0 0.802559 0 0 0 0 0.376502 0 0 0 1 0"/>
<feBlend mode="normal" in2="shape" result="effect2_innerShadow_22_1153"/>
</filter>
<linearGradient id="paint0_linear_22_1153" x1="38.4992" y1="4" x2="56.9992" y2="27" gradientUnits="userSpaceOnUse">
<stop stop-color="#FBDC97"/>
<stop offset="1" stop-color="#FFBE24"/>
</linearGradient>
<linearGradient id="paint1_linear_22_1153" x1="38.4992" y1="4" x2="56.9992" y2="27" gradientUnits="userSpaceOnUse">
<stop stop-color="#FBDC97"/>
<stop offset="1" stop-color="#FFBE24"/>
</linearGradient>
<linearGradient id="paint2_linear_22_1153" x1="38.4992" y1="4" x2="56.9992" y2="27" gradientUnits="userSpaceOnUse">
<stop stop-color="#FBDC97"/>
<stop offset="1" stop-color="#FFBE24"/>
</linearGradient>
<linearGradient id="paint3_linear_22_1153" x1="38.4992" y1="4" x2="56.9992" y2="27" gradientUnits="userSpaceOnUse">
<stop stop-color="#FBDC97"/>
<stop offset="1" stop-color="#FFBE24"/>
</linearGradient>
<linearGradient id="paint4_linear_22_1153" x1="38.4992" y1="4" x2="56.9992" y2="27" gradientUnits="userSpaceOnUse">
<stop stop-color="#FBDC97"/>
<stop offset="1" stop-color="#FFBE24"/>
</linearGradient>
<linearGradient id="paint5_linear_22_1153" x1="126.331" y1="26.3964" x2="206.999" y2="26.3964" gradientUnits="userSpaceOnUse">
<stop stop-color="#FFBE24"/>
<stop offset="1" stop-color="#FFBE24"/>
</linearGradient>
<linearGradient id="paint6_linear_22_1153" x1="124.999" y1="43" x2="6.9992" y2="6" gradientUnits="userSpaceOnUse">
<stop offset="0.350338" stop-color="#FFF0AE"/>
<stop offset="1" stop-color="#FFF3C7"/>
</linearGradient>
<linearGradient id="paint7_linear_22_1153" x1="124.999" y1="43" x2="6.9992" y2="6" gradientUnits="userSpaceOnUse">
<stop offset="0.350338" stop-color="#FFF0AE"/>
<stop offset="1" stop-color="#FFF3C7"/>
</linearGradient>
<linearGradient id="paint8_linear_22_1153" x1="124.999" y1="43" x2="6.9992" y2="6" gradientUnits="userSpaceOnUse">
<stop offset="0.350338" stop-color="#FFF0AE"/>
<stop offset="1" stop-color="#FFF3C7"/>
</linearGradient>
<linearGradient id="paint9_linear_22_1153" x1="124.999" y1="43" x2="6.9992" y2="6" gradientUnits="userSpaceOnUse">
<stop offset="0.350338" stop-color="#FFF0AE"/>
<stop offset="1" stop-color="#FFF3C7"/>
</linearGradient>
<linearGradient id="paint10_linear_22_1153" x1="124.999" y1="43" x2="6.9992" y2="6" gradientUnits="userSpaceOnUse">
<stop offset="0.350338" stop-color="#FFF0AE"/>
<stop offset="1" stop-color="#FFF3C7"/>
</linearGradient>
<linearGradient id="paint11_linear_22_1153" x1="123.854" y1="9.92766" x2="207.723" y2="9.92766" gradientUnits="userSpaceOnUse">
<stop offset="0.519282" stop-color="#FF8A06"/>
<stop offset="1" stop-color="#FF9B4E"/>
</linearGradient>
<linearGradient id="paint12_linear_22_1153" x1="123.854" y1="9.92766" x2="207.723" y2="9.92766" gradientUnits="userSpaceOnUse">
<stop offset="0.519282" stop-color="#FF8A06"/>
<stop offset="1" stop-color="#FF9B4E"/>
</linearGradient>
<linearGradient id="paint13_linear_22_1153" x1="123.854" y1="9.92766" x2="207.723" y2="9.92766" gradientUnits="userSpaceOnUse">
<stop offset="0.519282" stop-color="#FF8A06"/>
<stop offset="1" stop-color="#FF9B4E"/>
</linearGradient>
</defs>
</svg>
