<svg id="SvgjsSvg1014" width="288" height="288" xmlns="http://www.w3.org/2000/svg" version="1.1" xmlns:xlink="http://www.w3.org/1999/xlink" xmlns:svgjs="http://svgjs.com/svgjs"><defs id="SvgjsDefs1015"></defs><g id="SvgjsG1016"><svg xmlns="http://www.w3.org/2000/svg" viewBox="0 0 32 32" width="288" height="288"><path fill="#FFF9DD" d="M26 32H6a6 6 0 0 1-6-6V6a6 6 0 0 1 6-6h20a6 6 0 0 1 6 6v20a6 6 0 0 1-6 6z" class="svgShape colorfff9dd-0 selectable"></path><path fill="#a89a6f" d="M23.058 11.279a.93.93 0 0 0-.943.917c0 .319.161.599.415.763l-3.197 6.671.667-8.884a.928.928 0 0 0 .863-.915c0-.506-.422-.917-.943-.917s-.943.411-.943.917c0 .399.261.731.627.857l-2.193 8.674-1.085-9.569a.91.91 0 0 0 .695-.877c0-.506-.422-.916-.942-.916s-.943.41-.943.917c0 .457.347.827.798.895l-.875 9.322-2.542-8.418a.907.907 0 0 0 .505-.808c0-.506-.422-.917-.943-.917s-.943.411-.943.917a.93.93 0 0 0 .984.915l1.095 8.807-3.692-6.408a.906.906 0 0 0 .361-.721c0-.506-.422-.917-.943-.917s-.941.41-.941.917a.93.93 0 0 0 .943.917.936.936 0 0 0 .2-.021l3.093 9.017c.706 2.097 6.979 2.135 7.92 0l2.793-9.312c.039.005.068.011.108.011.521-.001.943-.412.943-.918s-.422-.916-.942-.916zm-6.94 12.098c-1.599 0-2.895-.469-2.895-1.046 0-.578 1.296-.849 2.895-.849s2.725.271 2.725.849-1.127 1.046-2.725 1.046z" class="svgShape colorffd200-1 selectable"></path></svg></g></svg>