<svg xmlns="http://www.w3.org/2000/svg" viewBox="0 0 24 24" id="cartier">
  <path d="M12 24c-4.687 0-8.5-5.383-8.5-12S7.313 0 12 0s8.5 5.383 8.5 12-3.813 12-8.5 12zm0-23C7.864 1 4.5 5.935 4.5 12S7.864 23 12 23s7.5-4.935 7.5-11S16.136 1 12 1z"></path>
  <path d="M13.683 20.001c-.191 0-.388-.019-.589-.061-.845-.175-2.017-.824-2.801-2.92-.374-1-.6-1.869-.781-2.567-.391-1.501-.548-1.889-1.076-1.957a.5.5 0 0 1 0-.992c.528-.068.686-.456 1.076-1.957.182-.698.407-1.567.781-2.567.784-2.096 1.956-2.745 2.801-2.92 1.191-.249 2.234.307 2.766.856a.5.5 0 1 1-.719.695c-.383-.396-1.096-.729-1.844-.573-.858.179-1.573.971-2.066 2.291-.356.952-.575 1.794-.751 2.47-.248.946-.45 1.723-.896 2.201.446.478.648 1.255.896 2.201.176.676.395 1.518.751 2.47.493 1.32 1.208 2.112 2.066 2.291.749.154 1.461-.178 1.844-.573a.5.5 0 0 1 .719.695 3.118 3.118 0 0 1-2.177.917z"></path>
  <path d="M15.5 7a.5.5 0 0 1-.5-.5V4.572a.5.5 0 0 1 1 0V6.5a.5.5 0 0 1-.5.5zm0 13a.5.5 0 0 1-.5-.5v-1.928a.5.5 0 0 1 1 0V19.5a.5.5 0 0 1-.5.5zm-5.183.001a3.12 3.12 0 0 1-2.177-.917.5.5 0 1 1 .719-.695c.383.396 1.095.727 1.844.573.858-.179 1.573-.971 2.066-2.291.356-.952.575-1.794.751-2.47.247-.946.449-1.724.896-2.201-.446-.478-.648-1.255-.896-2.201-.176-.676-.395-1.518-.751-2.47-.493-1.32-1.208-2.112-2.066-2.291-.749-.154-1.461.178-1.844.573a.5.5 0 1 1-.718-.695c.53-.55 1.577-1.105 2.766-.856.845.175 2.017.824 2.801 2.92.374 1 .6 1.869.781 2.567.391 1.501.548 1.889 1.076 1.957a.5.5 0 0 1-.001.992c-.528.068-.686.456-1.076 1.957-.182.698-.407 1.567-.781 2.567-.784 2.096-1.956 2.745-2.801 2.92a2.868 2.868 0 0 1-.589.061z"></path>
  <path d="M8.5 7a.5.5 0 0 1-.5-.5V4.572a.5.5 0 0 1 1 0V6.5a.5.5 0 0 1-.5.5zm0 13a.5.5 0 0 1-.5-.5v-1.928a.5.5 0 0 1 1 0V19.5a.5.5 0 0 1-.5.5z"></path>
</svg>
